0
SECTION
2
HEADER
9
$INSUNITS
70
4
9
$ACADVER
1
AC1014
9
$HANDSEED
5
FFFF
0
ENDSEC
0
SECTION
2
TABLES
0
TABLE
2
VPORT
5
8
100
AcDbSymbolTable
0
ENDTAB
0
TABLE
2
LTYPE
5
5
100
AcDbSymbolTable
0
LTYPE
5
14
100
AcDbSymbolTableRecord
100
AcDbLinetypeTableRecord
2
BYBLOCK
70
0
0
LTYPE
5
15
100
AcDbSymbolTableRecord
100
AcDbLinetypeTableRecord
2
BYLAYER
70
0
0
ENDTAB
0
TABLE
2
LAYER
5
2
100
AcDbSymbolTable
70
2
0
LAYER
5
50
100
AcDbSymbolTableRecord
100
AcDbLayerTableRecord
2
0
70
0
6
CONTINUOUS
0
ENDTAB
0
TABLE
2
STYLE
5
3
100
AcDbSymbolTable
70
1
0
STYLE
5
11
100
AcDbSymbolTableRecord
100
AcDbTextStyleTableRecord
2
STANDARD
70
0
0
ENDTAB
0
TABLE
2
VIEW
5
6
100
AcDbSymbolTable
70
0
0
ENDTAB
0
TABLE
2
UCS
5
7
100
AcDbSymbolTable
70
0
0
ENDTAB
0
TABLE
2
APPID
5
9
100
AcDbSymbolTable
70
2
0
APPID
5
12
100
AcDbSymbolTableRecord
100
AcDbRegAppTableRecord
2
ACAD
70
0
0
ENDTAB
0
TABLE
2
DIMSTYLE
5
A
100
AcDbSymbolTable
70
1
0
ENDTAB
0
TABLE
2
BLOCK_RECORD
5
1
100
AcDbSymbolTable
70
1
0
BLOCK_RECORD
5
1F
100
AcDbSymbolTableRecord
100
AcDbBlockTableRecord
2
*MODEL_SPACE
0
BLOCK_RECORD
5
1B
100
AcDbSymbolTableRecord
100
AcDbBlockTableRecord
2
*PAPER_SPACE
0
ENDTAB
0
ENDSEC
0
SECTION
2
BLOCKS
0
BLOCK
5
20
100
AcDbEntity
100
AcDbBlockBegin
2
*MODEL_SPACE
0
ENDBLK
5
21
100
AcDbEntity
100
AcDbBlockEnd
0
BLOCK
5
1C
100
AcDbEntity
100
AcDbBlockBegin
2
*PAPER_SPACE
0
ENDBLK
5
1D
100
AcDbEntity
100
AcDbBlockEnd
0
ENDSEC
0
SECTION
2
ENTITIES
0
ARC
5
100
100
AcDbEntity
8
0
100
AcDbCircle
10
118.69828999999999
20
-63.921619999999997
30
0
40
1.2500000000000049
100
AcDbArc
50
203.68561400000036
51
225.57246300000008
0
ARC
5
101
100
AcDbEntity
8
0
100
AcDbCircle
10
-12.755279999999999
20
-55.041730000000008
30
0
40
14.999999999999998
100
AcDbArc
50
287.72482400000001
51
321.01317899999992
0
ARC
5
102
100
AcDbEntity
8
0
100
AcDbCircle
10
13.361090000000001
20
-116.54031000000001
30
0
40
1.1999999999999922
100
AcDbArc
50
-90
51
17.67146500000085
0
CIRCLE
5
103
100
AcDbEntity
8
0
100
AcDbCircle
10
11.55664
20
-115.70031
30
0
40
1
0
ARC
5
104
100
AcDbEntity
8
0
100
AcDbCircle
10
-9.0740300000000005
20
-14.711680000000001
30
0
40
175.55874
100
AcDbArc
50
337.05977900000005
51
339.52924499999995
0
ARC
5
105
100
AcDbEntity
8
0
100
AcDbCircle
10
93.314719999999994
20
-52.900059999999996
30
0
40
66.280169999999998
100
AcDbArc
50
339.50199300000003
51
343.587198
0
ARC
5
106
100
AcDbEntity
8
0
100
AcDbCircle
10
124.52083999999999
20
-55.041730000000008
30
0
40
12.869999999999997
100
AcDbArc
50
287.72482400000001
51
321.01317899999992
0
ARC
5
107
100
AcDbEntity
8
0
100
AcDbCircle
10
-43.961399999999998
20
-52.900059999999996
30
0
40
64.150170000000003
100
AcDbArc
50
339.50679599999995
51
343.62826600000005
0
ARC
5
108
100
AcDbEntity
8
0
100
AcDbCircle
10
-146.35014999999999
20
-14.711680000000001
30
0
40
173.42873999999998
100
AcDbArc
50
337.05977900000005
51
339.53142000000003
0
ARC
5
109
100
AcDbEntity
8
0
100
AcDbCircle
10
140.99244000000002
20
-119.43677000000001
30
0
40
4.2500000000000071
100
AcDbArc
50
0
51
90
0
ARC
5
110
100
AcDbEntity
8
0
100
AcDbCircle
10
139.49243999999999
20
-119.43677000000001
30
0
40
4.2500000000000071
100
AcDbArc
50
90
51
180
0
ARC
5
111
100
AcDbEntity
8
0
100
AcDbCircle
10
91.097280000000012
20
-77.420389999999998
30
0
40
3.2800000000000029
100
AcDbArc
50
90
51
253.99473499999985
0
ARC
5
112
100
AcDbEntity
8
0
100
AcDbCircle
10
117.12807000000001
20
-77.420389999999998
30
0
40
3.2800000000000051
100
AcDbArc
50
-73.994741999999846
51
90
0
ARC
5
113
100
AcDbEntity
8
0
100
AcDbCircle
10
107.68693999999999
20
-82.240389999999991
30
0
40
1.25
100
AcDbArc
50
270
51
286.00525199999981
0
ARC
5
114
100
AcDbEntity
8
0
100
AcDbCircle
10
100.5384
20
-82.240389999999991
30
0
40
1.2499999999999987
100
AcDbArc
50
253.99473199999989
51
270
0
CIRCLE
5
115
100
AcDbEntity
8
0
100
AcDbCircle
10
118.36267999999998
20
-77.570390000000003
30
0
40
0.9375
0
CIRCLE
5
116
100
AcDbEntity
8
0
100
AcDbCircle
10
89.862679999999983
20
-77.570390000000003
30
0
40
0.9375
0
LINE
5
117
100
AcDbEntity
8
0
100
AcDbLine
10
104.11268
20
-77.570390000000003
30
0
11
104.11268
21
-74.262149999999991
31
0
0
CIRCLE
5
118
100
AcDbEntity
8
0
100
AcDbCircle
10
-62.183759999999999
20
-115.70031
30
0
40
1
0
ARC
5
119
100
AcDbEntity
8
0
100
AcDbCircle
10
-62.894819999999996
20
-116.49030999999999
30
0
40
1.2500000000000018
100
AcDbArc
50
205.30869799999962
51
270
0
CIRCLE
5
120
100
AcDbEntity
8
0
100
AcDbCircle
10
85.292829999999995
20
-77.07692999999999
30
0
40
0.39000000000000001
0
CIRCLE
5
121
100
AcDbEntity
8
0
100
AcDbCircle
10
93.63882000000001
20
-143.29057
30
0
40
0.39000000000000001
0
ARC
5
122
100
AcDbEntity
8
0
100
AcDbCircle
10
134.49026999999998
20
-165.63141000000002
30
0
40
29.999999999999986
100
AcDbArc
50
291.86170300000003
51
303.03045200000003
0
CIRCLE
5
123
100
AcDbEntity
8
0
100
AcDbCircle
10
142.14026999999999
20
-172.21564999999998
30
0
40
0.39000000000000001
0
CIRCLE
5
124
100
AcDbEntity
8
0
100
AcDbCircle
10
147.96866
20
-60.5291
30
0
40
0.39000000000000001
0
ARC
5
125
100
AcDbEntity
8
0
100
AcDbCircle
10
89.44502
20
-42.657540000000004
30
0
40
3.7731399999999993
100
AcDbArc
50
236.12098800000001
51
352.93283799999995
0
LINE
5
126
100
AcDbEntity
8
0
100
AcDbLine
10
93.189490000000006
20
-43.121760000000002
30
0
11
93.434079999999994
21
-41.148930000000007
31
0
0
ARC
5
127
100
AcDbEntity
8
0
100
AcDbCircle
10
87.680710000000005
20
-182.78471999999999
30
0
40
14.999999999999989
100
AcDbArc
50
266.81710299999997
51
268.05853299999995
0
ARC
5
128
100
AcDbEntity
8
0
100
AcDbCircle
10
134.28529
20
-176.18227999999999
30
0
40
20.000000000000014
100
AcDbArc
50
279.92142100000001
51
283.967286
0
CIRCLE
5
129
100
AcDbEntity
8
0
100
AcDbCircle
10
-47.163199999999996
20
-55.350550000000005
30
0
40
1
0
CIRCLE
5
130
100
AcDbEntity
8
0
100
AcDbCircle
10
-9.6935199999999995
20
-115.70031
30
0
40
1
0
CIRCLE
5
131
100
AcDbEntity
8
0
100
AcDbCircle
10
11.696400000000001
20
-48.42015
30
0
40
1
0
ARC
5
132
100
AcDbEntity
8
0
100
AcDbCircle
10
78.240070000000003
20
-156.62697
30
0
40
40
100
AcDbArc
50
252.89518700000002
51
260.5743930000001
0
ARC
5
133
100
AcDbEntity
8
0
100
AcDbCircle
10
69.211359999999999
20
-174.57791
30
0
40
20.000000000000014
100
AcDbArc
50
240.52060699999998
51
246.48649300000005
0
CIRCLE
5
134
100
AcDbEntity
8
0
100
AcDbCircle
10
93.49266999999999
20
-146.49023000000003
30
0
40
1.6000000000000001
0
CIRCLE
5
135
100
AcDbEntity
8
0
100
AcDbCircle
10
97.742289999999997
20
-146.49023000000003
30
0
40
1.6000000000000001
0
CIRCLE
5
136
100
AcDbEntity
8
0
100
AcDbCircle
10
101.99252
20
-146.49023000000003
30
0
40
1.6000000000000001
0
CIRCLE
5
137
100
AcDbEntity
8
0
100
AcDbCircle
10
106.24276
20
-146.49023000000003
30
0
40
1.6000000000000001
0
CIRCLE
5
138
100
AcDbEntity
8
0
100
AcDbCircle
10
110.49275999999999
20
-146.49023000000003
30
0
40
1.6000000000000001
0
CIRCLE
5
139
100
AcDbEntity
8
0
100
AcDbCircle
10
114.74260000000001
20
-146.49023000000003
30
0
40
1.6000000000000001
0
CIRCLE
5
140
100
AcDbEntity
8
0
100
AcDbCircle
10
93.49266999999999
20
-146.49023000000003
30
0
40
1.8999999999999999
0
CIRCLE
5
141
100
AcDbEntity
8
0
100
AcDbCircle
10
97.742289999999997
20
-146.49023000000003
30
0
40
1.8999999999999999
0
CIRCLE
5
142
100
AcDbEntity
8
0
100
AcDbCircle
10
101.99252
20
-146.49023000000003
30
0
40
1.8999999999999999
0
CIRCLE
5
143
100
AcDbEntity
8
0
100
AcDbCircle
10
106.24276
20
-146.49023000000003
30
0
40
1.8999999999999999
0
CIRCLE
5
144
100
AcDbEntity
8
0
100
AcDbCircle
10
110.49275999999999
20
-146.49023000000003
30
0
40
1.8999999999999999
0
CIRCLE
5
145
100
AcDbEntity
8
0
100
AcDbCircle
10
114.74260000000001
20
-146.49023000000003
30
0
40
1.8999999999999999
0
CIRCLE
5
146
100
AcDbEntity
8
0
100
AcDbCircle
10
91.367479999999986
20
-143.29039999999998
30
0
40
0.80000000000000004
0
CIRCLE
5
147
100
AcDbEntity
8
0
100
AcDbCircle
10
99.867720000000006
20
-143.29039999999998
30
0
40
0.80000000000000004
0
CIRCLE
5
148
100
AcDbEntity
8
0
100
AcDbCircle
10
108.36756
20
-143.29039999999998
30
0
40
0.80000000000000004
0
CIRCLE
5
149
100
AcDbEntity
8
0
100
AcDbCircle
10
116.86748
20
-143.29039999999998
30
0
40
0.80000000000000004
0
ENDSEC
0
SECTION
2
OBJECTS
0
DICTIONARY
5
C
100
AcDbDictionary
3
ACAD_GROUP
350
D
3
ACAD_MLINESTYLE
350
17
0
DICTIONARY
5
D
100
AcDbDictionary
0
DICTIONARY
5
1A
330
C
100
AcDbDictionary
0
DICTIONARY
5
17
100
AcDbDictionary
0
ENDSEC
0
EOF
