0
SECTION
2
HEADER
9
$INSUNITS
70
4
9
$ACADVER
1
AC1014
9
$HANDSEED
5
FFFF
0
ENDSEC
0
SECTION
2
TABLES
0
TABLE
2
VPORT
5
8
100
AcDbSymbolTable
0
ENDTAB
0
TABLE
2
LTYPE
5
5
100
AcDbSymbolTable
0
LTYPE
5
14
100
AcDbSymbolTableRecord
100
AcDbLinetypeTableRecord
2
BYBLOCK
70
0
0
LTYPE
5
15
100
AcDbSymbolTableRecord
100
AcDbLinetypeTableRecord
2
BYLAYER
70
0
0
ENDTAB
0
TABLE
2
LAYER
5
2
100
AcDbSymbolTable
70
2
0
LAYER
5
50
100
AcDbSymbolTableRecord
100
AcDbLayerTableRecord
2
0
70
0
6
CONTINUOUS
0
ENDTAB
0
TABLE
2
STYLE
5
3
100
AcDbSymbolTable
70
1
0
STYLE
5
11
100
AcDbSymbolTableRecord
100
AcDbTextStyleTableRecord
2
STANDARD
70
0
0
ENDTAB
0
TABLE
2
VIEW
5
6
100
AcDbSymbolTable
70
0
0
ENDTAB
0
TABLE
2
UCS
5
7
100
AcDbSymbolTable
70
0
0
ENDTAB
0
TABLE
2
APPID
5
9
100
AcDbSymbolTable
70
2
0
APPID
5
12
100
AcDbSymbolTableRecord
100
AcDbRegAppTableRecord
2
ACAD
70
0
0
ENDTAB
0
TABLE
2
DIMSTYLE
5
A
100
AcDbSymbolTable
70
1
0
ENDTAB
0
TABLE
2
BLOCK_RECORD
5
1
100
AcDbSymbolTable
70
1
0
BLOCK_RECORD
5
1F
100
AcDbSymbolTableRecord
100
AcDbBlockTableRecord
2
*MODEL_SPACE
0
BLOCK_RECORD
5
1B
100
AcDbSymbolTableRecord
100
AcDbBlockTableRecord
2
*PAPER_SPACE
0
ENDTAB
0
ENDSEC
0
SECTION
2
BLOCKS
0
BLOCK
5
20
100
AcDbEntity
100
AcDbBlockBegin
2
*MODEL_SPACE
0
ENDBLK
5
21
100
AcDbEntity
100
AcDbBlockEnd
0
BLOCK
5
1C
100
AcDbEntity
100
AcDbBlockBegin
2
*PAPER_SPACE
0
ENDBLK
5
1D
100
AcDbEntity
100
AcDbBlockEnd
0
ENDSEC
0
SECTION
2
ENTITIES
0
ARC
5
100
100
AcDbEntity
8
0
100
AcDbCircle
10
87.753399999999999
20
-95.491129999999998
30
0
40
42.956560000000003
100
AcDbArc
50
44.484792999999975
51
45.572462999999985
0
ARC
5
101
100
AcDbEntity
8
0
100
AcDbCircle
10
123.78598
20
-52.742559999999997
30
0
40
15.283750000000001
100
AcDbArc
50
276.82075000000003
51
287.72482400000007
0
ARC
5
102
100
AcDbEntity
8
0
100
AcDbCircle
10
124.57178
20
-59.329210000000003
30
0
40
8.6503899999999927
100
AcDbArc
50
224.48404400000001
51
276.83147100000008
0
ARC
5
103
100
AcDbEntity
8
0
100
AcDbCircle
10
7.4742899999999999
20
-52.167900000000003
30
0
40
10.751899999999996
100
AcDbArc
50
28.934289999999972
51
41.972460000000027
0
ARC
5
104
100
AcDbEntity
8
0
100
AcDbCircle
10
11.738910000000001
20
-48.322789999999998
30
0
40
5.0097999999999976
100
AcDbArc
50
41.888903999999975
51
145.06767400000004
0
ARC
5
105
100
AcDbEntity
8
0
100
AcDbCircle
10
14.864620000000002
20
-50.521549999999998
30
0
40
8.8313899999999972
100
AcDbArc
50
144.98017600000006
51
160.36853300000001
0
ARC
5
106
100
AcDbEntity
8
0
100
AcDbCircle
10
48.64855
20
-62.489290000000004
30
0
40
44.672410000000006
100
AcDbArc
50
160.46992900000001
51
165.91516500000003
0
ARC
5
107
100
AcDbEntity
8
0
100
AcDbCircle
10
-26.946490000000001
20
-43.555320000000002
30
0
40
33.257269999999998
100
AcDbArc
50
321.01317899999992
51
345.96924999999999
0
CIRCLE
5
108
100
AcDbEntity
8
0
100
AcDbCircle
10
11.55664
20
-115.70031
30
0
40
0.625
0
CIRCLE
5
109
100
AcDbEntity
8
0
100
AcDbCircle
10
148.83276000000001
20
-115.70031
30
0
40
0.35000000000000003
0
ARC
5
110
100
AcDbEntity
8
0
100
AcDbCircle
10
227.50771
20
-114.83769000000001
30
0
40
81.338390000000004
100
AcDbArc
50
157.06342799999999
51
161.476685
0
ARC
5
111
100
AcDbEntity
8
0
100
AcDbCircle
10
113.88127
20
-58.943190000000001
30
0
40
44.844169999999991
100
AcDbArc
50
-16.431099000000042
51
7.9457529999999501
0
ARC
5
112
100
AcDbEntity
8
0
100
AcDbCircle
10
138.78665000000001
20
-55.467010000000002
30
0
40
19.697360000000007
100
AcDbArc
50
7.9457529999999501
51
28.89619800000003
0
ARC
5
113
100
AcDbEntity
8
0
100
AcDbCircle
10
144.75041000000002
20
-52.167900000000003
30
0
40
12.881900000000005
100
AcDbArc
50
28.86717299999999
51
41.950174999999959
0
ARC
5
114
100
AcDbEntity
8
0
100
AcDbCircle
10
149.01503
20
-48.322789999999998
30
0
40
7.1397999999999922
100
AcDbArc
50
41.878921000000048
51
144.73380500000005
0
ARC
5
115
100
AcDbEntity
8
0
100
AcDbCircle
10
152.14073999999999
20
-50.521549999999998
30
0
40
10.961390000000007
100
AcDbArc
50
144.78330400000007
51
160.34545600000004
0
ARC
5
116
100
AcDbEntity
8
0
100
AcDbCircle
10
185.92467000000002
20
-62.489290000000004
30
0
40
46.802410000000016
100
AcDbArc
50
160.45893199999998
51
165.93864199999999
0
ARC
5
117
100
AcDbEntity
8
0
100
AcDbCircle
10
110.32963000000001
20
-43.555320000000002
30
0
40
31.127270000000003
100
AcDbArc
50
321.01317899999992
51
345.93864200000002
0
ARC
5
118
100
AcDbEntity
8
0
100
AcDbCircle
10
1.5105299999999999
20
-55.467010000000002
30
0
40
17.567359999999997
100
AcDbArc
50
7.8824199999999855
51
28.940958999999985
0
ARC
5
119
100
AcDbEntity
8
0
100
AcDbCircle
10
-23.394849999999998
20
-58.943190000000001
30
0
40
42.714169999999996
100
AcDbArc
50
-16.370322999999981
51
7.9201029999999744
0
ARC
5
120
100
AcDbEntity
8
0
100
AcDbCircle
10
90.231589999999997
20
-114.83769000000001
30
0
40
83.468389999999999
100
AcDbArc
50
157.06342800000002
51
161.60637900000003
0
ARC
5
121
100
AcDbEntity
8
0
100
AcDbCircle
10
39.31194
20
-97.906829999999999
30
0
40
29.807750000000009
100
AcDbArc
50
161.60358300000001
51
203.57556599999995
0
ARC
5
122
100
AcDbEntity
8
0
100
AcDbCircle
10
-103.63115999999999
20
-160.11975000000001
30
0
40
126.08704
100
AcDbArc
50
21.219345000000004
51
23.506685000000015
0
ARC
5
123
100
AcDbEntity
8
0
100
AcDbCircle
10
-13.27084
20
-125.02502999999999
30
0
40
29.150849999999998
100
AcDbArc
50
17.671464999999991
51
21.198562000000006
0
LINE
5
124
100
AcDbEntity
8
0
100
AcDbLine
10
100.5384
20
-83.490389999999991
30
0
11
104.11268
21
-83.490389999999991
31
0
0
LINE
5
125
100
AcDbEntity
8
0
100
AcDbLine
10
104.11268
20
-83.490389999999991
30
0
11
107.68693999999999
21
-83.490389999999991
31
0
0
LINE
5
126
100
AcDbEntity
8
0
100
AcDbLine
10
100.19374000000001
20
-83.441940000000002
30
0
11
90.192899999999995
21
-80.573250000000002
31
0
0
LINE
5
127
100
AcDbEntity
8
0
100
AcDbLine
10
108.0316
20
-83.441940000000002
30
0
11
118.03245000000001
21
-80.573250000000002
31
0
0
CIRCLE
5
128
100
AcDbEntity
8
0
100
AcDbCircle
10
75.092359999999999
20
-115.70031
30
0
40
0.35000000000000003
0
CIRCLE
5
129
100
AcDbEntity
8
0
100
AcDbCircle
10
-62.183759999999999
20
-115.70031
30
0
40
0.625
0
ARC
5
130
100
AcDbEntity
8
0
100
AcDbCircle
10
130.40145999999999
20
-159.34251
30
0
40
37.50124000000001
100
AcDbArc
50
303.03045199999997
51
357.30701599999998
0
ARC
5
131
100
AcDbEntity
8
0
100
AcDbCircle
10
2.9668999999999999
20
-118.00015
30
0
40
6.3649800000000001
100
AcDbArc
50
2.3396580000000182
51
177.66034200000001
0
LINE
5
132
100
AcDbEntity
8
0
100
AcDbLine
10
145.24243999999999
20
-119.43677000000001
30
0
11
145.24243999999999
21
-167.13675999999998
31
0
0
LINE
5
133
100
AcDbEntity
8
0
100
AcDbLine
10
135.24243999999999
20
-119.43677000000001
30
0
11
135.24243999999999
21
-167.13675999999998
31
0
0
CIRCLE
5
134
100
AcDbEntity
8
0
100
AcDbCircle
10
140.24243999999999
20
-113.78032000000002
30
0
40
0.32500000000000001
0
CIRCLE
5
135
100
AcDbEntity
8
0
100
AcDbCircle
10
140.24243999999999
20
-172.29321999999999
30
0
40
0.32500000000000001
0
LINE
5
136
100
AcDbEntity
8
0
100
AcDbLine
10
91.097280000000012
20
-74.140389999999996
30
0
11
101.33268
21
-74.140389999999996
31
0
0
LINE
5
137
100
AcDbEntity
8
0
100
AcDbLine
10
106.89267999999998
20
-74.140389999999996
30
0
11
117.12807000000001
21
-74.140389999999996
31
0
0
ARC
5
138
100
AcDbEntity
8
0
100
AcDbCircle
10
112.63514000000001
20
-67.090389999999999
30
0
40
2.5
100
AcDbArc
50
-90
51
0.85443399999968761
0
LINE
5
139
100
AcDbEntity
8
0
100
AcDbLine
10
115.04265000000001
20
-60.869609999999994
30
0
11
115.13486999999999
21
-67.053110000000004
31
0
0
LINE
5
140
100
AcDbEntity
8
0
100
AcDbLine
10
93.434480000000008
20
-43.987559999999995
30
0
11
93.090490000000003
21
-67.053110000000004
31
0
0
ARC
5
141
100
AcDbEntity
8
0
100
AcDbCircle
10
95.590210000000013
20
-67.090389999999999
30
0
40
2.5000000000000036
100
AcDbArc
50
179.14556600000034
51
270
0
LINE
5
142
100
AcDbEntity
8
0
100
AcDbLine
10
102.86268
20
-87.725330000000014
30
0
11
102.86268
21
-83.490389999999991
31
0
0
LINE
5
143
100
AcDbEntity
8
0
100
AcDbLine
10
105.36268
20
-87.604860000000002
30
0
11
105.36268
21
-83.490389999999991
31
0
0
LINE
5
144
100
AcDbEntity
8
0
100
AcDbLine
10
139.99244000000002
20
-164.20812999999998
30
0
11
173.30083999999999
21
-182.03765000000001
31
0
0
LINE
5
145
100
AcDbEntity
8
0
100
AcDbLine
10
66.983840000000001
20
-46.028010000000002
30
0
11
67.810960000000009
21
-31.663890000000002
31
0
0
CIRCLE
5
146
100
AcDbEntity
8
0
100
AcDbCircle
10
116.86748
20
-143.29039999999998
30
0
40
0.42500000000000004
0
CIRCLE
5
147
100
AcDbEntity
8
0
100
AcDbCircle
10
108.36756
20
-143.29039999999998
30
0
40
0.42500000000000004
0
CIRCLE
5
148
100
AcDbEntity
8
0
100
AcDbCircle
10
99.867720000000006
20
-143.29039999999998
30
0
40
0.42500000000000004
0
CIRCLE
5
149
100
AcDbEntity
8
0
100
AcDbCircle
10
91.367479999999986
20
-143.29039999999998
30
0
40
0.42500000000000004
0
CIRCLE
5
150
100
AcDbEntity
8
0
100
AcDbCircle
10
114.74260000000001
20
-146.49023000000003
30
0
40
0.65000000000000002
0
CIRCLE
5
151
100
AcDbEntity
8
0
100
AcDbCircle
10
110.49275999999999
20
-146.49023000000003
30
0
40
0.65000000000000002
0
CIRCLE
5
152
100
AcDbEntity
8
0
100
AcDbCircle
10
106.24276
20
-146.49023000000003
30
0
40
0.65000000000000002
0
CIRCLE
5
153
100
AcDbEntity
8
0
100
AcDbCircle
10
101.99252
20
-146.49023000000003
30
0
40
0.65000000000000002
0
CIRCLE
5
154
100
AcDbEntity
8
0
100
AcDbCircle
10
97.742289999999997
20
-146.49023000000003
30
0
40
0.65000000000000002
0
CIRCLE
5
155
100
AcDbEntity
8
0
100
AcDbCircle
10
93.49266999999999
20
-146.49023000000003
30
0
40
0.65000000000000002
0
ARC
5
156
100
AcDbEntity
8
0
100
AcDbCircle
10
-13.49014
20
-52.742559999999997
30
0
40
17.41375
100
AcDbArc
50
276.82074999999998
51
287.72482400000001
0
ARC
5
157
100
AcDbEntity
8
0
100
AcDbCircle
10
-12.70434
20
-59.329210000000003
30
0
40
10.780390000000001
100
AcDbArc
50
224.48404399999995
51
276.83147100000002
0
ARC
5
158
100
AcDbEntity
8
0
100
AcDbCircle
10
-49.52272
20
-95.491129999999998
30
0
40
40.826560000000001
100
AcDbArc
50
44.484792999999982
51
46.458717999999998
0
ARC
5
159
100
AcDbEntity
8
0
100
AcDbCircle
10
-24.663490000000003
20
-67.090179999999989
30
0
40
2.5002099999999978
100
AcDbArc
50
270.00474000000003
51
359.99531500006196
0
ARC
5
160
100
AcDbEntity
8
0
100
AcDbCircle
10
-41.663870000000003
20
-67.091070000000002
30
0
40
2.4993200000000027
100
AcDbArc
50
179.22629300000017
51
270.00628499999999
0
ARC
5
161
100
AcDbEntity
8
0
100
AcDbCircle
10
-45.517029999999998
20
-108.27264
30
0
40
20.472840000000005
100
AcDbArc
50
188.91024500000003
51
205.30869799999999
0
ARC
5
162
100
AcDbEntity
8
0
100
AcDbCircle
10
-10.67684
20
-102.82488000000001
30
0
40
55.736370000000008
100
AcDbArc
50
181.63494899999995
51
188.89556999999999
0
ARC
5
163
100
AcDbEntity
8
0
100
AcDbCircle
10
22.126490000000004
20
-101.85521000000001
30
0
40
88.554029999999969
100
AcDbArc
50
160.85869299999999
51
181.65652800000001
0
ARC
5
164
100
AcDbEntity
8
0
100
AcDbCircle
10
-8.91648
20
-91.093289999999996
30
0
40
55.698520000000009
100
AcDbArc
50
141.17947599999999
51
160.84630100000001
0
ARC
5
165
100
AcDbEntity
8
0
100
AcDbCircle
10
-43.410349999999994
20
-62.834360000000004
30
0
40
11.1158
100
AcDbArc
50
92.846376000000035
51
143.207132
0
ARC
5
166
100
AcDbEntity
8
0
100
AcDbCircle
10
-21.716340000000002
20
-66.215070000000011
30
0
40
0.44993999999999734
100
AcDbArc
50
45.011806999999962
51
173.35551700000036
0
SPLINE
5
167
100
AcDbEntity
8
0
100
AcDbSpline
70
1064
71
3
72
8
73
4
74
0
42
0.000000001
43
0.0000000001
44
0.0000000001
40
0
40
0
40
0
40
0
40
1
40
1
40
1
40
1
10
-22.163283218023366
20
-66.0708613733607
30
0
10
-22.163283218023366
20
-66.0708613733607
30
0
10
-22.163283218023366
20
-67.09038893241582
30
0
10
-22.163283218023366
20
-67.09038893241582
30
0
0
SPLINE
5
168
100
AcDbEntity
8
0
100
AcDbSpline
70
1064
71
3
72
8
73
4
74
0
42
0.000000001
43
0.0000000001
44
0.0000000001
40
0
40
0
40
0
40
0
40
1
40
1
40
1
40
1
10
-43.962338336133584
20
-51.732278696195344
30
0
10
-43.962338336133584
20
-51.732278696195344
30
0
10
-44.162968257393445
20
-67.057318066274092
30
0
10
-44.162968257393445
20
-67.057318066274092
30
0
0
LINE
5
169
100
AcDbEntity
8
0
100
AcDbLine
10
-48.583600000000004
20
-112.99039
30
0
11
-33.163360000000004
21
-112.99039
31
0
0
LINE
5
170
100
AcDbEntity
8
0
100
AcDbLine
10
-33.163360000000004
20
-112.99039
30
0
11
-17.753360000000001
21
-112.99039
31
0
0
LINE
5
171
100
AcDbEntity
8
0
100
AcDbLine
10
-50.453599999999994
20
-117.74030999999999
30
0
11
-62.894819999999996
21
-117.74030999999999
31
0
0
LINE
5
172
100
AcDbEntity
8
0
100
AcDbLine
10
-15.88336
20
-117.74030999999999
30
0
11
-15.88336
21
-114.86039
31
0
0
ARC
5
173
100
AcDbEntity
8
0
100
AcDbCircle
10
-17.753360000000001
20
-114.86039
30
0
40
1.8700000000000006
100
AcDbArc
50
0
51
90
0
LINE
5
174
100
AcDbEntity
8
0
100
AcDbLine
10
-50.453599999999994
20
-117.74030999999999
30
0
11
-50.453599999999994
21
-114.86039
31
0
0
ARC
5
175
100
AcDbEntity
8
0
100
AcDbCircle
10
-48.583600000000004
20
-114.86039
30
0
40
1.8699999999999939
100
AcDbArc
50
90
51
180
0
LINE
5
176
100
AcDbEntity
8
0
100
AcDbLine
10
-41.663600000000002
20
-69.590389999999999
30
0
11
-24.66329
21
-69.590389999999999
31
0
0
LINE
5
177
100
AcDbEntity
8
0
100
AcDbLine
10
-43.204549999999998
20
-74.460009999999997
30
0
11
-23.12227
21
-74.460009999999997
31
0
0
ARC
5
178
100
AcDbEntity
8
0
100
AcDbCircle
10
-23.12227
20
-77.535009999999986
30
0
40
3.0750000000000011
100
AcDbArc
50
0
51
90
0
ARC
5
179
100
AcDbEntity
8
0
100
AcDbCircle
10
-23.12227
20
-77.535009999999986
30
0
40
3.0749999999999904
100
AcDbArc
50
-90.000003999999976
51
0
0
LINE
5
180
100
AcDbEntity
8
0
100
AcDbLine
10
-43.204549999999998
20
-80.610009999999988
30
0
11
-23.12227
21
-80.610009999999988
31
0
0
ARC
5
181
100
AcDbEntity
8
0
100
AcDbCircle
10
-43.204549999999998
20
-77.535009999999986
30
0
40
3.0750000000000011
100
AcDbArc
50
180
51
269.99999600000001
0
ARC
5
182
100
AcDbEntity
8
0
100
AcDbCircle
10
-43.204549999999998
20
-77.535009999999986
30
0
40
3.0750000000000011
100
AcDbArc
50
90
51
180
0
CIRCLE
5
183
100
AcDbEntity
8
0
100
AcDbCircle
10
-47.163199999999996
20
-55.350550000000005
30
0
40
0.625
0
CIRCLE
5
184
100
AcDbEntity
8
0
100
AcDbCircle
10
-9.6935199999999995
20
-115.70031
30
0
40
0.625
0
CIRCLE
5
185
100
AcDbEntity
8
0
100
AcDbCircle
10
11.696400000000001
20
-48.42015
30
0
40
0.625
0
CIRCLE
5
186
100
AcDbEntity
8
0
100
AcDbCircle
10
148.97251999999997
20
-48.42015
30
0
40
0.35000000000000003
0
CIRCLE
5
187
100
AcDbEntity
8
0
100
AcDbCircle
10
127.5826
20
-115.70031
30
0
40
0.35000000000000003
0
CIRCLE
5
188
100
AcDbEntity
8
0
100
AcDbCircle
10
90.112919999999988
20
-55.350550000000005
30
0
40
0.35000000000000003
0
LINE
5
189
100
AcDbEntity
8
0
100
AcDbLine
10
91.768039999999985
20
-128.36249000000001
30
0
11
89.773770000000013
21
-122.44369
31
0
0
ARC
5
190
100
AcDbEntity
8
0
100
AcDbCircle
10
93.848679999999987
20
-121.0707
30
0
40
4.2999999999999963
100
AcDbArc
50
95.308434000000091
51
198.6206
0
ARC
5
191
100
AcDbEntity
8
0
100
AcDbCircle
10
94.279319999999998
20
-127.51633999999999
30
0
40
2.6500000000000057
100
AcDbArc
50
198.62060199999985
51
255.9999840000001
0
LINE
5
192
100
AcDbEntity
8
0
100
AcDbLine
10
110.33425
20
-134.25040999999999
30
0
11
93.638229999999993
21
-130.08761999999999
31
0
0
ARC
5
193
100
AcDbEntity
8
0
100
AcDbCircle
10
110.97535000000001
20
-131.67913000000001
30
0
40
2.6499999999999919
100
AcDbArc
50
255.99998399999996
51
313.37936599999989
0
LINE
5
194
100
AcDbEntity
8
0
100
AcDbLine
10
112.79542999999998
20
-133.60521
30
0
11
117.33497999999999
21
-129.31547
31
0
0
ARC
5
195
100
AcDbEntity
8
0
100
AcDbCircle
10
114.38162
20
-126.19014
30
0
40
4.3000000000000078
100
AcDbArc
50
-46.62063399999991
51
56.691537000000061
0
LINE
5
196
100
AcDbEntity
8
0
100
AcDbLine
10
106.89017999999999
20
-116.12237
30
0
11
116.74294999999999
21
-122.59650999999999
31
0
0
ARC
5
197
100
AcDbEntity
8
0
100
AcDbCircle
10
105.43494000000001
20
-118.33703999999999
30
0
40
2.6499999999999995
100
AcDbArc
50
56.691533999999983
51
95.308433999999821
0
LINE
5
198
100
AcDbEntity
8
0
100
AcDbLine
10
105.18977
20
-115.69841
30
0
11
93.450860000000006
21
-116.78914
31
0
0
LINE
5
199
100
AcDbEntity
8
0
100
AcDbLine
10
115.04265000000001
20
-60.869609999999994
30
0
11
115.67403
21
-60.869609999999994
31
0
0
LINE
5
200
100
AcDbEntity
8
0
100
AcDbLine
10
93.434480000000008
20
-43.987559999999995
30
0
11
92.97596999999999
21
-43.987559999999995
31
0
0
LINE
5
201
100
AcDbEntity
8
0
100
AcDbLine
10
104.11268
20
-209.97624999999999
30
0
11
104.11268
21
-14.150540000000014
31
0
0
LINE
5
202
100
AcDbEntity
8
0
100
AcDbLine
10
104.1126
20
-69.590389999999999
30
0
11
104.1126
21
-66.27261
31
0
0
LINE
5
203
100
AcDbEntity
8
0
100
AcDbLine
10
95.590210000000013
20
-69.590389999999999
30
0
11
101.33268
21
-69.590389999999999
31
0
0
LINE
5
204
100
AcDbEntity
8
0
100
AcDbLine
10
106.89267999999998
20
-69.590389999999999
30
0
11
112.63514000000001
21
-69.590389999999999
31
0
0
LINE
5
205
100
AcDbEntity
8
0
100
AcDbLine
10
106.89267999999998
20
-74.140389999999996
30
0
11
106.89267999999998
21
-69.590389999999999
31
0
0
LINE
5
206
100
AcDbEntity
8
0
100
AcDbLine
10
101.33268
20
-74.140389999999996
30
0
11
101.33268
21
-69.590389999999999
31
0
0
ARC
5
207
100
AcDbEntity
8
0
100
AcDbCircle
10
104.11268
20
-89.890389999999996
30
0
40
2.5000000000000009
100
AcDbArc
50
44.999993000000131
51
224.99999300000013
0
LINE
5
208
100
AcDbEntity
8
0
100
AcDbLine
10
122.63888
20
-104.88106000000001
30
0
11
105.88043999999999
21
-88.122630000000001
31
0
0
LINE
5
209
100
AcDbEntity
8
0
100
AcDbLine
10
119.10333999999999
20
-108.41659
30
0
11
102.34491
21
-91.658159999999995
31
0
0
ARC
5
210
100
AcDbEntity
8
0
100
AcDbCircle
10
120.87111
20
-106.64882
30
0
40
2.4999999999999951
100
AcDbArc
50
225
51
315
0
ARC
5
211
100
AcDbEntity
8
0
100
AcDbCircle
10
120.87111
20
-106.64882
30
0
40
2.4999999999999951
100
AcDbArc
50
-45
51
44.999999999999773
0
CIRCLE
5
212
100
AcDbEntity
8
0
100
AcDbCircle
10
96.613299999999995
20
-63.320319999999995
30
0
40
0.80000000000000004
0
CIRCLE
5
213
100
AcDbEntity
8
0
100
AcDbCircle
10
111.6133
20
-63.320319999999995
30
0
40
0.80000000000000004
0
CIRCLE
5
214
100
AcDbEntity
8
0
100
AcDbCircle
10
111.6133
20
-43.320319999999995
30
0
40
0.80000000000000004
0
CIRCLE
5
215
100
AcDbEntity
8
0
100
AcDbCircle
10
96.613299999999995
20
-43.320319999999995
30
0
40
0.80000000000000004
0
ARC
5
216
100
AcDbEntity
8
0
100
AcDbCircle
10
95.220399999999984
20
-41.37039
30
0
40
1.8000000000000016
100
AcDbArc
50
90
51
172.93283799999975
0
LINE
5
217
100
AcDbEntity
8
0
100
AcDbLine
10
113.23904999999999
20
-39.570390000000003
30
0
11
95.220399999999984
21
-39.570389999999996
31
0
0
ARC
5
218
100
AcDbEntity
8
0
100
AcDbCircle
10
119.12714999999999
20
-58.691749999999999
30
0
40
4.0881600000000011
100
AcDbArc
50
179.6764560000012
51
212.19006000000016
0
ARC
5
219
100
AcDbEntity
8
0
100
AcDbCircle
10
119.20875000000001
20
-58.600000000000001
30
0
40
4.206329999999995
100
AcDbArc
50
212.65431200000003
51
214.97812399999981
0
ARC
5
220
100
AcDbEntity
8
0
100
AcDbCircle
10
92.331439999999986
20
-75.487960000000001
30
0
40
27.542200000000001
100
AcDbArc
50
23.685613999999958
51
31.709710999999992
0
ARC
5
221
100
AcDbEntity
8
0
100
AcDbCircle
10
177.80079000000001
20
-97.572469999999996
30
0
40
28.727409999999999
100
AcDbArc
50
162.63229200000004
51
182.98828299999994
0
ARC
5
222
100
AcDbEntity
8
0
100
AcDbCircle
10
186.43151
20
-95.268149999999991
30
0
40
37.512230000000017
100
AcDbArc
50
185.81701199999998
51
204.74770699999999
0
ARC
5
223
100
AcDbEntity
8
0
100
AcDbCircle
10
263.30457000000001
20
-65.329579999999993
30
0
40
119.96214999999998
100
AcDbArc
50
202.36283299999997
51
205.92200599999998
0
ARC
5
224
100
AcDbEntity
8
0
100
AcDbCircle
10
31.689340000000001
20
-183.34631999999999
30
0
40
140.02646999999999
100
AcDbArc
50
18.713557999999995
51
27.924564
0
ARC
5
225
100
AcDbEntity
8
0
100
AcDbCircle
10
107.77787000000001
20
-158.57651000000001
30
0
40
60.02088000000002
100
AcDbArc
50
7.6656099999999885
51
19.622071000000002
0
ARC
5
226
100
AcDbEntity
8
0
100
AcDbCircle
10
112.87741
20
-158.94639999999998
30
0
40
55.026209999999985
100
AcDbArc
50
-2.2476599999998186
51
8.7556699999999772
0
ARC
5
227
100
AcDbEntity
8
0
100
AcDbCircle
10
127.0467
20
-147.07911999999999
30
0
40
49.989850000000011
100
AcDbArc
50
283.967286
51
291.86170299999992
0
ARC
5
228
100
AcDbEntity
8
0
100
AcDbCircle
10
113.60146
20
-57.930349999999997
30
0
40
140.04723999999999
100
AcDbArc
50
273.11467799999997
51
279.92142100000001
0
ARC
5
229
100
AcDbEntity
8
0
100
AcDbCircle
10
104.11236000000001
20
301.95360999999997
30
0
40
500.01675
100
AcDbArc
50
268.05853300000001
51
271.95966099999998
0
ARC
5
230
100
AcDbEntity
8
0
100
AcDbCircle
10
94.62339999999999
20
-57.937019999999997
30
0
40
140.04059000000001
100
AcDbArc
50
260.5743930000001
51
266.81710299999997
0
ARC
5
231
100
AcDbEntity
8
0
100
AcDbCircle
10
81.183960000000013
20
-147.06054999999998
30
0
40
50.009140000000016
100
AcDbArc
50
246.48649300000005
51
252.89518700000002
0
ARC
5
232
100
AcDbEntity
8
0
100
AcDbCircle
10
77.823899999999995
20
-159.34251
30
0
40
37.501240000000003
100
AcDbArc
50
182.56211900000002
51
240.52060699999998
0
ARC
5
233
100
AcDbEntity
8
0
100
AcDbCircle
10
95.301210000000012
20
-158.94701000000001
30
0
40
54.9801
100
AcDbArc
50
171.23628100000005
51
182.15967099999989
0
ARC
5
234
100
AcDbEntity
8
0
100
AcDbCircle
10
100.44795999999999
20
-158.57437999999999
30
0
40
60.021059999999984
100
AcDbArc
50
160.38014700000002
51
172.33646200000004
0
ARC
5
235
100
AcDbEntity
8
0
100
AcDbCircle
10
176.47464000000002
20
-183.32298000000003
30
0
40
139.96129999999999
100
AcDbArc
50
152.07211000000001
51
161.28749299999998
0
ARC
5
236
100
AcDbEntity
8
0
100
AcDbCircle
10
-55.080689999999997
20
-65.336780000000005
30
0
40
119.96034000000002
100
AcDbArc
50
334.08139400000005
51
337.64052599999997
0
ARC
5
237
100
AcDbEntity
8
0
100
AcDbCircle
10
21.81372
20
-95.273699999999991
30
0
40
37.491419999999998
100
AcDbArc
50
335.24696899999998
51
354.18827000000005
0
ARC
5
238
100
AcDbEntity
8
0
100
AcDbCircle
10
30.459580000000003
20
-97.56447
30
0
40
28.692389999999989
100
AcDbArc
50
-3.0079249999999287
51
25.700410000000037
0
ARC
5
239
100
AcDbEntity
8
0
100
AcDbCircle
10
-74.581860000000006
20
-135.12826999999999
30
0
40
140.12235999999999
100
AcDbArc
50
20.908633999999996
51
23.559540999999996
0
ARC
5
240
100
AcDbEntity
8
0
100
AcDbCircle
10
127.68369
20
-47.976060000000004
30
0
40
80.124009999999984
100
AcDbArc
50
197.12568199999995
51
202.87428400000002
0
ARC
5
241
100
AcDbEntity
8
0
100
AcDbCircle
10
108.54091
20
-53.691379999999995
30
0
40
60.147270000000006
100
AcDbArc
50
190.03189599999993
51
197.29242399999998
0
ARC
5
242
100
AcDbEntity
8
0
100
AcDbCircle
10
83.998130000000003
20
-59.456959999999995
30
0
40
35.003489999999992
100
AcDbArc
50
166.13752399999998
51
187.73613799999995
0
ARC
5
243
100
AcDbEntity
8
0
100
AcDbCircle
10
68.173509999999993
20
-55.55547
30
0
40
18.705009999999998
100
AcDbArc
50
138.74023999999997
51
166.12649199999998
0
ARC
5
244
100
AcDbEntity
8
0
100
AcDbCircle
10
63.95288
20
-52.76831
30
0
40
13.711480000000002
100
AcDbArc
50
122.62045400000001
51
135.86321999999998
0
ARC
5
245
100
AcDbEntity
8
0
100
AcDbCircle
10
66.327339999999992
20
-57.150499999999994
30
0
40
18.685929999999999
100
AcDbArc
50
83.899235999999974
51
121.50914899999999
0
ARC
5
246
100
AcDbEntity
8
0
100
AcDbCircle
10
65.579740000000001
20
-70.963600000000014
30
0
40
32.508330000000001
100
AcDbArc
50
69.975740999999999
51
85.176555000000022
0
ARC
5
247
100
AcDbEntity
8
0
100
AcDbCircle
10
59.628440000000005
20
-87.44802
30
0
40
50.034099999999988
100
AcDbArc
50
56.365857000000013
51
70.036463999999981
0
LINE
5
248
100
AcDbEntity
8
0
100
AcDbLine
10
-3.3927700000000001
20
-117.74030999999999
30
0
11
-15.88336
21
-117.74030999999999
31
0
0
LINE
5
249
100
AcDbEntity
8
0
100
AcDbLine
10
9.3265700000000002
20
-117.74030999999999
30
0
11
13.361090000000001
21
-117.74030999999999
31
0
0
LINE
5
250
100
AcDbEntity
8
0
100
AcDbLine
10
145.24243999999999
20
-162.05602999999999
30
0
11
165.38933
21
-172.84036999999998
31
0
0
LINE
5
251
100
AcDbEntity
8
0
100
AcDbLine
10
142.77573000000001
20
-170.66034999999999
30
0
11
161.30895000000004
21
-180.58092000000002
31
0
0
LINE
5
252
100
AcDbEntity
8
0
100
AcDbLine
10
118.49592999999999
20
-127.44014
30
0
11
135.24243999999999
21
-127.44014
31
0
0
LINE
5
253
100
AcDbEntity
8
0
100
AcDbLine
10
118.49592999999999
20
-124.94014
30
0
11
135.24243999999999
21
-124.94014
31
0
0
LINE
5
254
100
AcDbEntity
8
0
100
AcDbLine
10
135.24243999999999
20
-122.78791999999999
30
0
11
121.51815999999999
21
-109.06363999999999
31
0
0
LINE
5
255
100
AcDbEntity
8
0
100
AcDbLine
10
135.24243999999999
20
-119.25238
30
0
11
123.28592
21
-107.29586999999998
31
0
0
ENDSEC
0
SECTION
2
OBJECTS
0
DICTIONARY
5
C
100
AcDbDictionary
3
ACAD_GROUP
350
D
3
ACAD_MLINESTYLE
350
17
0
DICTIONARY
5
D
100
AcDbDictionary
0
DICTIONARY
5
1A
330
C
100
AcDbDictionary
0
DICTIONARY
5
17
100
AcDbDictionary
0
ENDSEC
0
EOF
