0
SECTION
2
HEADER
9
$INSUNITS
70
1
9
$ACADVER
1
AC1014
9
$HANDSEED
5
FFFF
0
ENDSEC
0
SECTION
2
TABLES
0
TABLE
2
VPORT
5
8
100
AcDbSymbolTable
0
ENDTAB
0
TABLE
2
LTYPE
5
5
100
AcDbSymbolTable
0
LTYPE
5
14
100
AcDbSymbolTableRecord
100
AcDbLinetypeTableRecord
2
BYBLOCK
70
0
0
LTYPE
5
15
100
AcDbSymbolTableRecord
100
AcDbLinetypeTableRecord
2
BYLAYER
70
0
0
ENDTAB
0
TABLE
2
LAYER
5
2
100
AcDbSymbolTable
70
2
0
LAYER
5
50
100
AcDbSymbolTableRecord
100
AcDbLayerTableRecord
2
0
70
0
6
CONTINUOUS
0
ENDTAB
0
TABLE
2
STYLE
5
3
100
AcDbSymbolTable
70
1
0
STYLE
5
11
100
AcDbSymbolTableRecord
100
AcDbTextStyleTableRecord
2
STANDARD
70
0
0
ENDTAB
0
TABLE
2
VIEW
5
6
100
AcDbSymbolTable
70
0
0
ENDTAB
0
TABLE
2
UCS
5
7
100
AcDbSymbolTable
70
0
0
ENDTAB
0
TABLE
2
APPID
5
9
100
AcDbSymbolTable
70
2
0
APPID
5
12
100
AcDbSymbolTableRecord
100
AcDbRegAppTableRecord
2
ACAD
70
0
0
ENDTAB
0
TABLE
2
DIMSTYLE
5
A
100
AcDbSymbolTable
70
1
0
ENDTAB
0
TABLE
2
BLOCK_RECORD
5
1
100
AcDbSymbolTable
70
1
0
BLOCK_RECORD
5
1F
100
AcDbSymbolTableRecord
100
AcDbBlockTableRecord
2
*MODEL_SPACE
0
BLOCK_RECORD
5
1B
100
AcDbSymbolTableRecord
100
AcDbBlockTableRecord
2
*PAPER_SPACE
0
ENDTAB
0
ENDSEC
0
SECTION
2
BLOCKS
0
BLOCK
5
20
100
AcDbEntity
100
AcDbBlockBegin
2
*MODEL_SPACE
0
ENDBLK
5
21
100
AcDbEntity
100
AcDbBlockEnd
0
BLOCK
5
1C
100
AcDbEntity
100
AcDbBlockBegin
2
*PAPER_SPACE
0
ENDBLK
5
1D
100
AcDbEntity
100
AcDbBlockEnd
0
ENDSEC
0
SECTION
2
ENTITIES
0
LINE
5
100
100
AcDbEntity
8
0
100
AcDbLine
10
3.594128144876604
20
0.41062908791626618
30
0
11
3.594128144876604
21
1.1564271323047783
31
0
0
LINE
5
101
100
AcDbEntity
8
0
100
AcDbLine
10
3.594128144876604
20
1.1564271323047783
30
0
11
3.594128144876604
21
1.3136238866910257
31
0
0
LINE
5
102
100
AcDbEntity
8
0
100
AcDbLine
10
0.82804757835708387
20
1.5138731320073879
30
0
11
3.4313630216295081
21
1.4786087506207188
31
0
0
ARC
5
103
100
AcDbEntity
8
0
100
AcDbCircle
10
0.82500001914857846
20
1.2888937721032614
30
0
40
0.22499999999999967
100
AcDbArc
50
89.223921689156342
51
180
0
ARC
5
104
100
AcDbEntity
8
0
100
AcDbCircle
10
3.429128144876604
20
1.3136238866910255
30
0
40
0.16500000000000009
100
AcDbArc
50
0
51
89.223921689156285
0
LINE
5
105
100
AcDbEntity
8
0
100
AcDbLine
10
3.594128144876604
20
-0.33516895647224604
30
0
11
3.594128144876604
21
-0.49236571085849351
31
0
0
LINE
5
106
100
AcDbEntity
8
0
100
AcDbLine
10
3.594128144876604
20
0.41062908791626618
30
0
11
3.594128144876604
21
-0.33516895647224604
31
0
0
ARC
5
107
100
AcDbEntity
8
0
100
AcDbCircle
10
3.429128144876604
20
-0.49236571085849312
30
0
40
0.1650000000000002
100
AcDbArc
50
270.77607831084373
51
360
0
LINE
5
108
100
AcDbEntity
8
0
100
AcDbLine
10
0.82804757835708387
20
-0.69261495617485569
30
0
11
3.4313630216295081
21
-0.65735057478818637
31
0
0
ARC
5
109
100
AcDbEntity
8
0
100
AcDbCircle
10
0.82500001914857846
20
-0.4676355962707292
30
0
40
0.22499999999999976
100
AcDbArc
50
180
51
270.77607831084367
0
LINE
5
110
100
AcDbEntity
8
0
100
AcDbLine
10
0.13526162799477673
20
0.72050192915277533
30
0
11
0.13526162799477673
21
1.6989536461278101
31
0
0
LINE
5
111
100
AcDbEntity
8
0
100
AcDbLine
10
-0.52214154899873499
20
1.8296948961875137
30
0
11
-0.82420731981288753
21
0.78508169120844284
31
0
0
LINE
5
112
100
AcDbEntity
8
0
100
AcDbLine
10
-0.82420731981288753
20
0.78508169120844284
30
0
11
-0.82420731981288753
21
0.41062908791626634
31
0
0
LINE
5
113
100
AcDbEntity
8
0
100
AcDbLine
10
-0.82420731981288753
20
0.41062908791626634
30
0
11
-0.82420731981288753
21
0.78508169120844284
31
0
0
ARC
5
114
100
AcDbEntity
8
0
100
AcDbCircle
10
-0.20768421519369651
20
1.6927002176629655
30
0
40
0.34300285236105216
100
AcDbArc
50
1.0446411965754379
51
156.45944544457674
0
ARC
5
115
100
AcDbEntity
8
0
100
AcDbCircle
10
-0.20768421519369665
20
-0.87144204183043272
30
0
40
0.34300285236105216
100
AcDbArc
50
203.54055455542323
51
358.95535880342459
0
LINE
5
116
100
AcDbEntity
8
0
100
AcDbLine
10
-0.82420731981288753
20
0.41062908791626634
30
0
11
-0.82420731981288753
21
0.036176484624089775
31
0
0
LINE
5
117
100
AcDbEntity
8
0
100
AcDbLine
10
-0.82420731981288753
20
0.036176484624089775
30
0
11
-0.82420731981288753
21
0.41062908791626634
31
0
0
LINE
5
118
100
AcDbEntity
8
0
100
AcDbLine
10
0.13526162799477673
20
0.10075624667975729
30
0
11
0.13526162799477653
21
-0.87769547029527717
31
0
0
LINE
5
119
100
AcDbEntity
8
0
100
AcDbLine
10
-0.52214154899873522
20
-1.0084367203549809
30
0
11
-0.82420731981288753
21
0.036176484624089775
31
0
0
LINE
5
120
100
AcDbEntity
8
0
100
AcDbLine
10
0.6000000191485787
20
-0.7500000239357234
30
0
11
0.6000000191485787
21
0.1007562466797572
31
0
0
LINE
5
121
100
AcDbEntity
8
0
100
AcDbLine
10
0.6000000191485787
20
0.72050192915277533
30
0
11
0.6000000191485787
21
1.2888937721032612
31
0
0
SPLINE
5
122
100
AcDbEntity
8
0
100
AcDbSpline
70
1064
71
5
72
91
73
85
74
0
42
0.000000001
43
0.0000000001
44
0.0000000001
40
0
40
0
40
0
40
0
40
0
40
0
40
0.012500000000000001
40
0.025000000000000001
40
0.037500000000000006
40
0.050000000000000003
40
0.0625
40
0.074999999999999997
40
0.087499999999999994
40
0.099999999999999992
40
0.11249999999999999
40
0.12499999999999999
40
0.13749999999999998
40
0.14999999999999999
40
0.16250000000000001
40
0.17500000000000002
40
0.18750000000000003
40
0.20000000000000004
40
0.21250000000000005
40
0.22500000000000006
40
0.23750000000000007
40
0.25000000000000006
40
0.26250000000000007
40
0.27500000000000008
40
0.28750000000000009
40
0.3000000000000001
40
0.31250000000000011
40
0.32500000000000012
40
0.33750000000000013
40
0.35000000000000014
40
0.36250000000000016
40
0.37500000000000017
40
0.38750000000000018
40
0.40000000000000019
40
0.4125000000000002
40
0.42500000000000021
40
0.43750000000000022
40
0.45000000000000023
40
0.46250000000000024
40
0.47500000000000026
40
0.48750000000000027
40
0.50000000000000022
40
0.51250000000000018
40
0.52500000000000013
40
0.53750000000000009
40
0.55000000000000004
40
0.5625
40
0.57499999999999996
40
0.58749999999999991
40
0.59999999999999987
40
0.61249999999999982
40
0.62499999999999978
40
0.63749999999999973
40
0.64999999999999969
40
0.66249999999999964
40
0.6749999999999996
40
0.68749999999999956
40
0.69999999999999951
40
0.71249999999999947
40
0.72499999999999942
40
0.73749999999999938
40
0.74999999999999933
40
0.76249999999999929
40
0.77499999999999925
40
0.7874999999999992
40
0.79999999999999916
40
0.81249999999999911
40
0.82499999999999907
40
0.83749999999999902
40
0.84999999999999898
40
0.86249999999999893
40
0.87499999999999889
40
0.88749999999999885
40
0.8999999999999988
40
0.91249999999999876
40
0.92499999999999871
40
0.93749999999999867
40
0.94999999999999862
40
0.96249999999999858
40
0.97499999999999853
40
0.98749999999999849
40
1
40
1
40
1
40
1
40
1
40
1
10
1.643933757385093
20
-0.68156300261321234
30
0
10
1.6141830768963921
20
-0.68966627309936934
30
0
10
1.5561134234941389
20
-0.70640306420412635
30
0
10
1.473304076823458
20
-0.73309900930378935
30
0
10
1.3714839737628641
20
-0.77187585923630453
30
0
10
1.2584827923301485
20
-0.82561613899534503
30
0
10
1.159591934995913
20
-0.88451256748195517
30
0
10
1.0744705926400417
20
-0.94833510032956692
30
0
10
1.0025292922964451
20
-1.0166898447321464
30
0
10
0.94288386311134209
20
-1.0889913089230954
30
0
10
0.89424588687135909
20
-1.1643870512734356
30
0
10
0.85506827382964812
20
-1.2418734327666856
30
0
10
0.82386972906875089
20
-1.3205441816962555
30
0
10
0.7995173408308881
20
-1.3998098657996216
30
0
10
0.78150330144434244
20
-1.4796079689592869
30
0
10
0.7702868004227823
20
-1.5606751301966426
30
0
10
0.76687487821347355
20
-1.6441052383543806
30
0
10
0.77227307287781055
20
-1.730780463767597
30
0
10
0.78702439652347767
20
-1.8208964462138604
30
0
10
0.81061288780862351
20
-1.9133327522285981
30
0
10
0.84123220808748822
20
-2.0054486556770845
30
0
10
0.87656047007044935
20
-2.0940542282584245
30
0
10
0.91437894112565121
20
-2.1762013173302086
30
0
10
0.95320221381426162
20
-2.2499822546724464
30
0
10
0.99302249224486105
20
-2.3154761607636396
30
0
10
1.0356358874578497
20
-2.3751646866924454
30
0
10
1.0835641609774525
20
-2.4325694424693216
30
0
10
1.1392170152314642
20
-2.491194004223237
30
0
10
1.2039561803525236
20
-2.5533417170418766
30
0
10
1.2772107968778144
20
-2.6189984728440461
30
0
10
1.3571468350630085
20
-2.6865511426183799
30
0
10
1.4413110417021329
20
-2.7534814267583188
30
0
10
1.5273162618131118
20
-2.8170966408522333
30
0
10
1.6134335337548453
20
-2.8751773263722198
30
0
10
1.699411122497904
20
-2.9268265087079852
30
0
10
1.7864539136324673
20
-2.9725729888455743
30
0
10
1.876383921808648
20
-3.0137477476626127
30
0
10
1.9710274520886042
20
-3.0520610646890209
30
0
10
2.0715045643296137
20
-3.0890950711455631
30
0
10
2.1775719773492748
20
-3.1258396889411455
30
0
10
2.2869085986954394
20
-3.1621899911017812
30
0
10
2.3959271927226937
20
-3.1973474865243556
30
0
10
2.5006138346122051
20
-3.2302378188062444
30
0
10
2.5973736722930663
20
-3.2599305565107737
30
0
10
2.6838357517232532
20
-3.2860392414827349
30
0
10
2.7597680830900879
20
-3.3091753405476365
30
0
10
2.8276754116893463
20
-3.3312464126255708
30
0
10
2.8912871330891261
20
-3.3547164669559786
30
0
10
2.9543185980896514
20
-3.3820017010075794
30
0
10
3.0190439855135813
20
-3.4147711822951354
30
0
10
3.0851864924620536
20
-3.4534100961803853
30
0
10
3.15095082115633
20
-3.4975838116620244
30
0
10
3.2138657012520686
20
-3.5467058953302981
30
0
10
3.2716765023256826
20
-3.6004279306440323
30
0
10
3.3232740495134041
20
-3.6591590852058555
30
0
10
3.3683180074186074
20
-3.7236752166456029
30
0
10
3.4067427707547919
20
-3.7946387678505387
30
0
10
3.4383582815776736
20
-3.8722032007204326
30
0
10
3.4622851720358492
20
-3.9554544105227669
30
0
10
3.4770506280489002
20
-4.0425174499544463
30
0
10
3.4810760297309415
20
-4.1310605013328869
30
0
10
3.4730522605440934
20
-4.2186830961723807
30
0
10
3.4523475178027505
20
-4.3033406317960514
30
0
10
3.4194399726357454
20
-4.3837840996701463
30
0
10
3.3756114895064746
20
-4.4594171170167316
30
0
10
3.3225752043769834
20
-4.5301026153548731
30
0
10
3.2621410123886245
20
-4.5959934771819242
30
0
10
3.1958347392040944
20
-4.6573419580294617
30
0
10
3.1246299554087527
20
-4.7143533565428193
30
0
10
3.0491194690911532
20
-4.7672053903755449
30
0
10
2.9696241110432426
20
-4.8160434993446071
30
0
10
2.8863216527680442
20
-4.8609855757076383
30
0
10
2.7993764353240995
20
-4.9021225114702469
30
0
10
2.7090398477614568
20
-4.9395209989179287
30
0
10
2.6156059158324587
20
-4.9732279449598069
30
0
10
2.5193887983394641
20
-5.0032748185239564
30
0
10
2.4206910011540295
20
-5.0296820929325339
30
0
10
2.3197772731752577
20
-5.0524634578321814
30
0
10
2.2168415579333138
20
-5.0716306418632442
30
0
10
2.1120131196339242
20
-5.0871939022674351
30
0
10
2.0053709826035564
20
-5.0991615506404271
30
0
10
1.9186385891309132
20
-5.1058641684942563
30
0
10
1.8527977659759214
20
-5.1092776667446813
30
0
10
1.8085521797235251
20
-5.1108364193978666
30
0
10
1.7863414607533483
20
-5.1114365674884823
30
0
0
SPLINE
5
123
100
AcDbEntity
8
0
100
AcDbSpline
70
1064
71
5
72
661
73
655
74
0
42
0.000000001
43
0.0000000001
44
0.0000000001
40
0
40
0
40
0
40
0
40
0
40
0
40
0.0015384615384615385
40
0.0030769230769230769
40
0.0046153846153846149
40
0.0061538461538461538
40
0.0076923076923076927
40
0.0092307692307692316
40
0.010769230769230771
40
0.012307692307692309
40
0.013846153846153848
40
0.015384615384615387
40
0.016923076923076926
40
0.018461538461538463
40
0.02
40
0.021538461538461538
40
0.023076923076923075
40
0.024615384615384612
40
0.026153846153846149
40
0.027692307692307686
40
0.029230769230769223
40
0.030769230769230761
40
0.032307692307692301
40
0.033846153846153838
40
0.035384615384615375
40
0.036923076923076913
40
0.03846153846153845
40
0.039999999999999987
40
0.041538461538461524
40
0.043076923076923061
40
0.044615384615384598
40
0.046153846153846136
40
0.047692307692307673
40
0.04923076923076921
40
0.050769230769230747
40
0.052307692307692284
40
0.053846153846153821
40
0.055384615384615359
40
0.056923076923076896
40
0.058461538461538433
40
0.05999999999999997
40
0.061538461538461507
40
0.063076923076923044
40
0.064615384615384588
40
0.066153846153846133
40
0.067692307692307677
40
0.069230769230769221
40
0.070769230769230765
40
0.072307692307692309
40
0.073846153846153853
40
0.075384615384615397
40
0.076923076923076941
40
0.078461538461538485
40
0.080000000000000029
40
0.081538461538461574
40
0.083076923076923118
40
0.084615384615384662
40
0.086153846153846206
40
0.08769230769230775
40
0.089230769230769294
40
0.090769230769230838
40
0.092307692307692382
40
0.093846153846153926
40
0.09538461538461547
40
0.096923076923077014
40
0.098461538461538559
40
0.1000000000000001
40
0.10153846153846165
40
0.10307692307692319
40
0.10461538461538473
40
0.10615384615384628
40
0.10769230769230782
40
0.10923076923076937
40
0.11076923076923091
40
0.11230769230769246
40
0.113846153846154
40
0.11538461538461554
40
0.11692307692307709
40
0.11846153846153863
40
0.12000000000000018
40
0.12153846153846172
40
0.12307692307692326
40
0.12461538461538481
40
0.12615384615384634
40
0.12769230769230788
40
0.12923076923076943
40
0.13076923076923097
40
0.13230769230769251
40
0.13384615384615406
40
0.1353846153846156
40
0.13692307692307715
40
0.13846153846153869
40
0.14000000000000024
40
0.14153846153846178
40
0.14307692307692332
40
0.14461538461538487
40
0.14615384615384641
40
0.14769230769230796
40
0.1492307692307695
40
0.15076923076923104
40
0.15230769230769259
40
0.15384615384615413
40
0.15538461538461568
40
0.15692307692307722
40
0.15846153846153876
40
0.16000000000000031
40
0.16153846153846185
40
0.1630769230769234
40
0.16461538461538494
40
0.16615384615384649
40
0.16769230769230803
40
0.16923076923076957
40
0.17076923076923112
40
0.17230769230769266
40
0.17384615384615421
40
0.17538461538461575
40
0.17692307692307729
40
0.17846153846153884
40
0.18000000000000038
40
0.18153846153846193
40
0.18307692307692347
40
0.18461538461538501
40
0.18615384615384656
40
0.1876923076923081
40
0.18923076923076965
40
0.19076923076923119
40
0.19230769230769273
40
0.19384615384615428
40
0.19538461538461582
40
0.19692307692307737
40
0.19846153846153891
40
0.20000000000000046
40
0.201538461538462
40
0.20307692307692354
40
0.20461538461538509
40
0.20615384615384663
40
0.20769230769230818
40
0.20923076923076972
40
0.21076923076923126
40
0.21230769230769281
40
0.21384615384615435
40
0.2153846153846159
40
0.21692307692307744
40
0.21846153846153898
40
0.22000000000000053
40
0.22153846153846207
40
0.22307692307692362
40
0.22461538461538516
40
0.2261538461538467
40
0.22769230769230825
40
0.22923076923076979
40
0.23076923076923134
40
0.23230769230769288
40
0.23384615384615443
40
0.23538461538461597
40
0.23692307692307751
40
0.23846153846153906
40
0.2400000000000006
40
0.24153846153846215
40
0.24307692307692369
40
0.24461538461538523
40
0.24615384615384678
40
0.24769230769230832
40
0.24923076923076987
40
0.25076923076923141
40
0.25230769230769295
40
0.2538461538461545
40
0.25538461538461604
40
0.25692307692307759
40
0.25846153846153913
40
0.26000000000000068
40
0.26153846153846222
40
0.26307692307692376
40
0.26461538461538531
40
0.26615384615384685
40
0.2676923076923084
40
0.26923076923076994
40
0.27076923076923148
40
0.27230769230769303
40
0.27384615384615457
40
0.27538461538461612
40
0.27692307692307766
40
0.2784615384615392
40
0.28000000000000075
40
0.28153846153846229
40
0.28307692307692384
40
0.28461538461538538
40
0.28615384615384692
40
0.28769230769230847
40
0.28923076923077001
40
0.29076923076923156
40
0.2923076923076931
40
0.29384615384615465
40
0.29538461538461619
40
0.29692307692307773
40
0.29846153846153928
40
0.30000000000000082
40
0.30153846153846237
40
0.30307692307692391
40
0.30461538461538545
40
0.306153846153847
40
0.30769230769230854
40
0.30923076923077009
40
0.31076923076923163
40
0.31230769230769317
40
0.31384615384615472
40
0.31538461538461626
40
0.31692307692307781
40
0.31846153846153935
40
0.32000000000000089
40
0.32153846153846244
40
0.32307692307692398
40
0.32461538461538553
40
0.32615384615384707
40
0.32769230769230862
40
0.32923076923077016
40
0.3307692307692317
40
0.33230769230769325
40
0.33384615384615479
40
0.33538461538461634
40
0.33692307692307788
40
0.33846153846153942
40
0.34000000000000097
40
0.34153846153846251
40
0.34307692307692406
40
0.3446153846153856
40
0.34615384615384714
40
0.34769230769230869
40
0.34923076923077023
40
0.35076923076923178
40
0.35230769230769332
40
0.35384615384615486
40
0.35538461538461641
40
0.35692307692307795
40
0.3584615384615395
40
0.36000000000000104
40
0.36153846153846259
40
0.36307692307692413
40
0.36461538461538567
40
0.36615384615384722
40
0.36769230769230876
40
0.36923076923077031
40
0.37076923076923185
40
0.37230769230769339
40
0.37384615384615494
40
0.37538461538461648
40
0.37692307692307803
40
0.37846153846153957
40
0.38000000000000111
40
0.38153846153846266
40
0.3830769230769242
40
0.38461538461538575
40
0.38615384615384729
40
0.38769230769230884
40
0.38923076923077038
40
0.39076923076923192
40
0.39230769230769347
40
0.39384615384615501
40
0.39538461538461656
40
0.3969230769230781
40
0.39846153846153964
40
0.40000000000000119
40
0.40153846153846273
40
0.40307692307692428
40
0.40461538461538582
40
0.40615384615384736
40
0.40769230769230891
40
0.40923076923077045
40
0.410769230769232
40
0.41230769230769354
40
0.41384615384615508
40
0.41538461538461663
40
0.41692307692307817
40
0.41846153846153972
40
0.42000000000000126
40
0.42153846153846281
40
0.42307692307692435
40
0.42461538461538589
40
0.42615384615384744
40
0.42769230769230898
40
0.42923076923077053
40
0.43076923076923207
40
0.43230769230769361
40
0.43384615384615516
40
0.4353846153846167
40
0.43692307692307825
40
0.43846153846153979
40
0.44000000000000133
40
0.44153846153846288
40
0.44307692307692442
40
0.44461538461538597
40
0.44615384615384751
40
0.44769230769230905
40
0.4492307692307706
40
0.45076923076923214
40
0.45230769230769369
40
0.45384615384615523
40
0.45538461538461678
40
0.45692307692307832
40
0.45846153846153986
40
0.46000000000000141
40
0.46153846153846295
40
0.4630769230769245
40
0.46461538461538604
40
0.46615384615384758
40
0.46769230769230913
40
0.46923076923077067
40
0.47076923076923222
40
0.47230769230769376
40
0.4738461538461553
40
0.47538461538461685
40
0.47692307692307839
40
0.47846153846153994
40
0.48000000000000148
40
0.48153846153846303
40
0.48307692307692457
40
0.48461538461538611
40
0.48615384615384766
40
0.4876923076923092
40
0.48923076923077075
40
0.49076923076923229
40
0.49230769230769383
40
0.49384615384615538
40
0.49538461538461692
40
0.49692307692307847
40
0.49846153846154001
40
0.50000000000000155
40
0.50153846153846304
40
0.50307692307692453
40
0.50461538461538602
40
0.50615384615384751
40
0.507692307692309
40
0.50923076923077049
40
0.51076923076923197
40
0.51230769230769346
40
0.51384615384615495
40
0.51538461538461644
40
0.51692307692307793
40
0.51846153846153942
40
0.52000000000000091
40
0.52153846153846239
40
0.52307692307692388
40
0.52461538461538537
40
0.52615384615384686
40
0.52769230769230835
40
0.52923076923076984
40
0.53076923076923133
40
0.53230769230769281
40
0.5338461538461543
40
0.53538461538461579
40
0.53692307692307728
40
0.53846153846153877
40
0.54000000000000026
40
0.54153846153846175
40
0.54307692307692323
40
0.54461538461538472
40
0.54615384615384621
40
0.5476923076923077
40
0.54923076923076919
40
0.55076923076923068
40
0.55230769230769217
40
0.55384615384615365
40
0.55538461538461514
40
0.55692307692307663
40
0.55846153846153812
40
0.55999999999999961
40
0.5615384615384611
40
0.56307692307692259
40
0.56461538461538407
40
0.56615384615384556
40
0.56769230769230705
40
0.56923076923076854
40
0.57076923076923003
40
0.57230769230769152
40
0.57384615384615301
40
0.5753846153846145
40
0.57692307692307598
40
0.57846153846153747
40
0.57999999999999896
40
0.58153846153846045
40
0.58307692307692194
40
0.58461538461538343
40
0.58615384615384492
40
0.5876923076923064
40
0.58923076923076789
40
0.59076923076922938
40
0.59230769230769087
40
0.59384615384615236
40
0.59538461538461385
40
0.59692307692307534
40
0.59846153846153682
40
0.59999999999999831
40
0.6015384615384598
40
0.60307692307692129
40
0.60461538461538278
40
0.60615384615384427
40
0.60769230769230576
40
0.60923076923076724
40
0.61076923076922873
40
0.61230769230769022
40
0.61384615384615171
40
0.6153846153846132
40
0.61692307692307469
40
0.61846153846153618
40
0.61999999999999766
40
0.62153846153845915
40
0.62307692307692064
40
0.62461538461538213
40
0.62615384615384362
40
0.62769230769230511
40
0.6292307692307666
40
0.63076923076922808
40
0.63230769230768957
40
0.63384615384615106
40
0.63538461538461255
40
0.63692307692307404
40
0.63846153846153553
40
0.63999999999999702
40
0.6415384615384585
40
0.64307692307691999
40
0.64461538461538148
40
0.64615384615384297
40
0.64769230769230446
40
0.64923076923076595
40
0.65076923076922744
40
0.65230769230768892
40
0.65384615384615041
40
0.6553846153846119
40
0.65692307692307339
40
0.65846153846153488
40
0.65999999999999637
40
0.66153846153845786
40
0.66307692307691934
40
0.66461538461538083
40
0.66615384615384232
40
0.66769230769230381
40
0.6692307692307653
40
0.67076923076922679
40
0.67230769230768828
40
0.67384615384614976
40
0.67538461538461125
40
0.67692307692307274
40
0.67846153846153423
40
0.67999999999999572
40
0.68153846153845721
40
0.6830769230769187
40
0.68461538461538018
40
0.68615384615384167
40
0.68769230769230316
40
0.68923076923076465
40
0.69076923076922614
40
0.69230769230768763
40
0.69384615384614912
40
0.6953846153846106
40
0.69692307692307209
40
0.69846153846153358
40
0.69999999999999507
40
0.70153846153845656
40
0.70307692307691805
40
0.70461538461537954
40
0.70615384615384102
40
0.70769230769230251
40
0.709230769230764
40
0.71076923076922549
40
0.71230769230768698
40
0.71384615384614847
40
0.71538461538460996
40
0.71692307692307145
40
0.71846153846153293
40
0.71999999999999442
40
0.72153846153845591
40
0.7230769230769174
40
0.72461538461537889
40
0.72615384615384038
40
0.72769230769230187
40
0.72923076923076335
40
0.73076923076922484
40
0.73230769230768633
40
0.73384615384614782
40
0.73538461538460931
40
0.7369230769230708
40
0.73846153846153229
40
0.73999999999999377
40
0.74153846153845526
40
0.74307692307691675
40
0.74461538461537824
40
0.74615384615383973
40
0.74769230769230122
40
0.74923076923076271
40
0.75076923076922419
40
0.75230769230768568
40
0.75384615384614717
40
0.75538461538460866
40
0.75692307692307015
40
0.75846153846153164
40
0.75999999999999313
40
0.76153846153845461
40
0.7630769230769161
40
0.76461538461537759
40
0.76615384615383908
40
0.76769230769230057
40
0.76923076923076206
40
0.77076923076922355
40
0.77230769230768503
40
0.77384615384614652
40
0.77538461538460801
40
0.7769230769230695
40
0.77846153846153099
40
0.77999999999999248
40
0.78153846153845397
40
0.78307692307691545
40
0.78461538461537694
40
0.78615384615383843
40
0.78769230769229992
40
0.78923076923076141
40
0.7907692307692229
40
0.79230769230768439
40
0.79384615384614587
40
0.79538461538460736
40
0.79692307692306885
40
0.79846153846153034
40
0.79999999999999183
40
0.80153846153845332
40
0.80307692307691481
40
0.80461538461537629
40
0.80615384615383778
40
0.80769230769229927
40
0.80923076923076076
40
0.81076923076922225
40
0.81230769230768374
40
0.81384615384614523
40
0.81538461538460671
40
0.8169230769230682
40
0.81846153846152969
40
0.81999999999999118
40
0.82153846153845267
40
0.82307692307691416
40
0.82461538461537565
40
0.82615384615383713
40
0.82769230769229862
40
0.82923076923076011
40
0.8307692307692216
40
0.83230769230768309
40
0.83384615384614458
40
0.83538461538460607
40
0.83692307692306755
40
0.83846153846152904
40
0.83999999999999053
40
0.84153846153845202
40
0.84307692307691351
40
0.844615384615375
40
0.84615384615383649
40
0.84769230769229797
40
0.84923076923075946
40
0.85076923076922095
40
0.85230769230768244
40
0.85384615384614393
40
0.85538461538460542
40
0.85692307692306691
40
0.8584615384615284
40
0.85999999999998988
40
0.86153846153845137
40
0.86307692307691286
40
0.86461538461537435
40
0.86615384615383584
40
0.86769230769229733
40
0.86923076923075882
40
0.8707692307692203
40
0.87230769230768179
40
0.87384615384614328
40
0.87538461538460477
40
0.87692307692306626
40
0.87846153846152775
40
0.87999999999998924
40
0.88153846153845072
40
0.88307692307691221
40
0.8846153846153737
40
0.88615384615383519
40
0.88769230769229668
40
0.88923076923075817
40
0.89076923076921966
40
0.89230769230768114
40
0.89384615384614263
40
0.89538461538460412
40
0.89692307692306561
40
0.8984615384615271
40
0.89999999999998859
40
0.90153846153845008
40
0.90307692307691156
40
0.90461538461537305
40
0.90615384615383454
40
0.90769230769229603
40
0.90923076923075752
40
0.91076923076921901
40
0.9123076923076805
40
0.91384615384614198
40
0.91538461538460347
40
0.91692307692306496
40
0.91846153846152645
40
0.91999999999998794
40
0.92153846153844943
40
0.92307692307691092
40
0.9246153846153724
40
0.92615384615383389
40
0.92769230769229538
40
0.92923076923075687
40
0.93076923076921836
40
0.93230769230767985
40
0.93384615384614134
40
0.93538461538460282
40
0.93692307692306431
40
0.9384615384615258
40
0.93999999999998729
40
0.94153846153844878
40
0.94307692307691027
40
0.94461538461537176
40
0.94615384615383324
40
0.94769230769229473
40
0.94923076923075622
40
0.95076923076921771
40
0.9523076923076792
40
0.95384615384614069
40
0.95538461538460218
40
0.95692307692306366
40
0.95846153846152515
40
0.95999999999998664
40
0.96153846153844813
40
0.96307692307690962
40
0.96461538461537111
40
0.9661538461538326
40
0.96769230769229408
40
0.96923076923075557
40
0.97076923076921706
40
0.97230769230767855
40
0.97384615384614004
40
0.97538461538460153
40
0.97692307692306302
40
0.9784615384615245
40
0.97999999999998599
40
0.98153846153844748
40
0.98307692307690897
40
0.98461538461537046
40
0.98615384615383195
40
0.98769230769229344
40
0.98923076923075492
40
0.99076923076921641
40
0.9923076923076779
40
0.99384615384613939
40
0.99538461538460088
40
0.99692307692306237
40
0.99846153846152386
40
1
40
1
40
1
40
1
40
1
40
1
10
1.7863414607533483
20
-5.1114365674884823
30
0
10
1.7732397285705481
20
-5.1118461250396603
30
0
10
1.7470762500299981
20
-5.1125643934830949
30
0
10
1.7079509982320058
20
-5.1133392596047429
30
0
10
1.6560238547593937
20
-5.1137673092478524
30
0
10
1.5914778593426322
20
-5.1132795762660113
30
0
10
1.5271829162535981
20
-5.1117256576522792
30
0
10
1.4629176823124117
20
-5.1090197656580401
30
0
10
1.3983079061207142
20
-5.1050167889873208
30
0
10
1.3328085245985826
20
-5.0995056371488063
30
0
10
1.2658352124905898
20
-5.0922626506881725
30
0
10
1.1968798489779977
20
-5.0830985653231515
30
0
10
1.1256297360684702
20
-5.0719069410957855
30
0
10
1.0520909515164429
20
-5.0587143556429215
30
0
10
0.97669350568078062
20
-5.043722997473008
30
0
10
0.90013843983950392
20
-5.027245596927723
30
0
10
0.82326357324158739
20
-5.0096481821798626
30
0
10
0.74689820833144238
20
-4.9912881162823286
30
0
10
0.67173155333005363
20
-4.9724581220543929
30
0
10
0.59815349573448051
20
-4.9533181340222088
30
0
10
0.52617788291384793
20
-4.933863547895073
30
0
10
0.45556954559779816
20
-4.9139833981400649
30
0
10
0.3859308785136169
20
-4.8935006703964854
30
0
10
0.31680679006410817
20
-4.8722207554725188
30
0
10
0.24777645164334597
20
-4.8499739979486787
30
0
10
0.17856457680172921
20
-4.8266670673014573
30
0
10
0.10905031635565307
20
-4.8022878695838838
30
0
10
0.039246111936949511
20
-4.7768967481864513
30
0
10
-0.030712740735343004
20
-4.7506226909703155
30
0
10
-0.10058457288857395
20
-4.7236564669852985
30
0
10
-0.17003147776958377
20
-4.6962474206889944
30
0
10
-0.23864388377623102
20
-4.6686913954264133
30
0
10
-0.30601387732006968
20
-4.6412883101458062
30
0
10
-0.37179944045205532
20
-4.6143053246078525
30
0
10
-0.43579492571332828
20
-4.5879363177783681
30
0
10
-0.49799268742291491
20
-4.5622663942666986
30
0
10
-0.55866474949883127
20
-4.5372251558015746
30
0
10
-0.61829300358521722
20
-4.5126246799513208
30
0
10
-0.67747001742271529
20
-4.4882139650297663
30
0
10
-0.73680943719772729
20
-4.4637279261953875
30
0
10
-0.79685367327593093
20
-4.4389381129327123
30
0
10
-0.85797917971376514
20
-4.4137042366758514
30
0
10
-0.92039696463336507
20
-4.3879836717947152
30
0
10
-0.98415903819919659
20
-4.3618380563329477
30
0
10
-1.0491614755809888
20
-4.3354419423953701
30
0
10
-1.1151516463355169
20
-4.309088342862454
30
0
10
-1.1817264485038386
20
-4.2832015276143771
30
0
10
-1.2484179227531123
20
-4.2582765486078307
30
0
10
-1.3147862246690691
20
-4.2348113938135201
30
0
10
-1.3805165204048271
20
-4.2132384626590271
30
0
10
-1.4454994570344837
20
-4.1938637769222948
30
0
10
-1.5099556483146332
20
-4.1767842120391343
30
0
10
-1.574368833935289
20
-4.1619017120574489
30
0
10
-1.6393065070548374
20
-4.1489964507630459
30
0
10
-1.7052661072392725
20
-4.1377835748901672
30
0
10
-1.7725295062103097
20
-4.1279735371357846
30
0
10
-1.8409668752958246
20
-4.1193388855002899
30
0
10
-1.9100832400697809
20
-4.1117402432931272
30
0
10
-1.9792119089549254
20
-4.1051249065944226
30
0
10
-2.0476695456610732
20
-4.0995355122914559
30
0
10
-2.1149131432124739
20
-4.0951108023229033
30
0
10
-2.1807302975313716
20
-4.0920988901230642
30
0
10
-2.2452855360282324
20
-4.0908308411929157
30
0
10
-2.30899608762439
20
-4.0916518095138619
30
0
10
-2.3724523406903537
20
-4.0948603046814913
30
0
10
-2.436320117938775
20
-4.1006504233769459
30
0
10
-2.5012506320265562
20
-4.1090371810449238
30
0
10
-2.5677892878460997
20
-4.1198638466968829
30
0
10
-2.6362927534884042
20
-4.1328581194010559
30
0
10
-2.7068344197253071
20
-4.1476738400872311
30
0
10
-2.7791343601599299
20
-4.1639376137911004
30
0
10
-2.8524305790422284
20
-4.1812959635923175
30
0
10
-2.9255625277739536
20
-4.1994519985013223
30
0
10
-2.9972797063216685
20
-4.2181891105475282
30
0
10
-3.066490999522129
20
-4.2373983570921281
30
0
10
-3.132536711428771
20
-4.2571040157888538
30
0
10
-3.1954543536487345
20
-4.2774906755442954
30
0
10
-3.2562375354648689
20
-4.2989275994210692
30
0
10
-3.3164239517779714
20
-4.3218526031996198
30
0
10
-3.377692363895846
20
-4.3466572651433504
30
0
10
-3.4414608039758452
20
-4.3735732690518079
30
0
10
-3.5084735719619453
20
-4.4025544992485113
30
0
10
-3.5784233799486915
20
-4.4331716763186346
30
0
10
-3.6503133795394733
20
-4.4647720607306693
30
0
10
-3.7227809367765419
20
-4.4966245887340914
30
0
10
-3.7944466246193604
20
-4.528076125403258
30
0
10
-3.8642279035995917
20
-4.5586901844412342
30
0
10
-3.9317273593369317
20
-4.5884241113874946
30
0
10
-3.9973937661410233
20
-4.6176880786233001
30
0
10
-4.062162923315733
20
-4.6471326002130056
30
0
10
-4.1272060162629449
20
-4.6774925958436535
30
0
10
-4.193628267935364
20
-4.7094044487382254
30
0
10
-4.2622048535349872
20
-4.7432450272780828
30
0
10
-4.3330583595376551
20
-4.7789336552346979
30
0
10
-4.4057953684326145
20
-4.8160324396952801
30
0
10
-4.4797165601146069
20
-4.8538946866012562
30
0
10
-4.5539980949217158
20
-4.8917944081214868
30
0
10
-4.6278919122575308
20
-4.9290684981998156
30
0
10
-4.7009018967157781
20
-4.965242428234653
30
0
10
-4.7730120870431474
20
-5.0001917597712255
30
0
10
-4.8445873949611151
20
-5.0340779325240828
30
0
10
-4.9161871151056555
20
-5.0672240182903456
30
0
10
-4.9884107069991046
20
-5.1000125244714267
30
0
10
-5.0617238823912585
20
-5.1327700845202378
30
0
10
-5.1363075949563246
20
-5.1656668479334185
30
0
10
-5.2118594243481189
20
-5.1985858466384673
30
0
10
-5.2877110313139255
20
-5.231190853178183
30
0
10
-5.3630216659938466
20
-5.2630419767224961
30
0
10
-5.4369426541206014
20
-5.2936930144197696
30
0
10
-5.5088009200625851
20
-5.3228008308779975
30
0
10
-5.5782582874346769
20
-5.3502193424265903
30
0
10
-5.6455227600008566
20
-5.3761266094356595
30
0
10
-5.7112518392029141
20
-5.4009559982187154
30
0
10
-5.7763702398043506
20
-5.4252734002837908
30
0
10
-5.841911903988124
20
-5.4496688094727368
30
0
10
-5.9088617488184241
20
-5.4746502639273018
30
0
10
-5.9779734145060193
20
-5.5005163733990852
30
0
10
-6.0496851228906721
20
-5.5273124274760672
30
0
10
-6.1241714847006277
20
-5.5549022967456416
30
0
10
-6.2013622428582185
20
-5.5830110903848267
30
0
10
-6.2809728137985923
20
-5.611280706790045
30
0
10
-6.3625334765979842
20
-5.6393174570389952
30
0
10
-6.4454100091843305
20
-5.66674904154375
30
0
10
-6.5288639289797556
20
-5.6932541706891016
30
0
10
-6.6121552600450144
20
-5.7185655670788007
30
0
10
-6.6946332394017896
20
-5.7424799862289841
30
0
10
-6.7758331176762052
20
-5.7648655568193936
30
0
10
-6.8555676717550185
20
-5.7856698529996402
30
0
10
-6.9340273639681342
20
-5.8049286428039686
30
0
10
-7.0118585627334555
20
-5.8227715143389576
30
0
10
-7.0899744282283814
20
-5.8393858519031925
30
0
10
-7.1693829771658351
20
-5.8549835227926232
30
0
10
-7.2510094324524932
20
-5.8697666805594189
30
0
10
-7.3355191915436802
20
-5.8838936110967435
30
0
10
-7.4231447882957298
20
-5.8974453438748125
30
0
10
-7.5134994891275335
20
-5.9103897908875282
30
0
10
-7.6057412512216489
20
-5.9226104633285308
30
0
10
-7.6987528884649592
20
-5.9339381990992326
30
0
10
-7.7913154182666213
20
-5.9441815746805142
30
0
10
-7.8822863027074037
20
-5.9531583573626072
30
0
10
-7.9707709155861624
20
-5.9607253861458238
30
0
10
-8.056308060045918
20
-5.9668118087986866
30
0
10
-8.1390169238933243
20
-5.9714430431840251
30
0
10
-8.2194480655275441
20
-5.974693241188942
30
0
10
-8.2984628165962437
20
-5.9766447307739661
30
0
10
-8.3771017204473015
20
-5.9773445370411293
30
0
10
-8.4564578114089457
20
-5.9767627057968609
30
0
10
-8.5375473975587983
20
-5.9747485254666142
30
0
10
-8.621183160804085
20
-5.9709913462974447
30
0
10
-8.7079016302101682
20
-5.9651007426904643
30
0
10
-8.7978868171580693
20
-5.9566839157964635
30
0
10
-8.8908997034772543
20
-5.9454221059746457
30
0
10
-8.9861952116877521
20
-5.9311520054901585
30
0
10
-9.0824678784824791
20
-5.9139343714524442
30
0
10
-9.1777284948435227
20
-5.8941540244284525
30
0
10
-9.2694029816519414
20
-5.8725184948879088
30
0
10
-9.3548583601884037
20
-5.8498623668626619
30
0
10
-9.4318299182044854
20
-5.8269958793446044
30
0
10
-9.4989003998746586
20
-5.8045316216412299
30
0
10
-9.5559284112131966
20
-5.7827301773699
30
0
10
-9.6045669202023394
20
-5.7613147021051079
30
0
10
-9.6485383199272103
20
-5.7393676799860707
30
0
10
-9.6921928527346619
20
-5.715807996243802
30
0
10
-9.7393358621425321
20
-5.6897753377907323
30
0
10
-9.7917759602958991
20
-5.6611134844462594
30
0
10
-9.8485205621818501
20
-5.6306214278858384
30
0
10
-9.9071223536048088
20
-5.5995353564986363
30
0
10
-9.9647479764938431
20
-5.5691058726396223
30
0
10
-10.019231949260115
20
-5.5401907802883166
30
0
10
-10.070437315185599
20
-5.5127126505836159
30
0
10
-10.120276156088917
20
-5.4856917565647505
30
0
10
-10.171421291345148
20
-5.4578391286068797
30
0
10
-10.226391069124745
20
-5.4279891954702153
30
0
10
-10.286455926902539
20
-5.3956109131854513
30
0
10
-10.350693147411761
20
-5.3612490256646517
30
0
10
-10.416838243853253
20
-5.3260447593511513
30
0
10
-10.482051202712844
20
-5.2913037774075393
30
0
10
-10.543750468619349
20
-5.2580225647134569
30
0
10
-10.600334985053628
20
-5.2264875284851744
30
0
10
-10.652167642856528
20
-5.1957016365913447
30
0
10
-10.701154921241798
20
-5.1637409327804544
30
0
10
-10.749805531486373
20
-5.1284579475613246
30
0
10
-10.800476272843458
20
-5.0880577685220993
30
0
10
-10.854501831768102
20
-5.0417586074367451
30
0
10
-10.911483562406875
20
-4.9903258176722929
30
0
10
-10.969905360563635
20
-4.9355027532127194
30
0
10
-11.027640557043863
20
-4.8795344420956619
30
0
10
-11.082521489656045
20
-4.8246353392838612
30
0
10
-11.132833496589233
20
-4.7725282023498163
30
0
10
-11.177960573750502
20
-4.7238370872341049
30
0
10
-11.218545094162002
20
-4.6779499978514094
30
0
10
-11.255920139281606
20
-4.6335840384026969
30
0
10
-11.291700385487397
20
-4.5891989644849147
30
0
10
-11.327338008988358
20
-4.5434405291575128
30
0
10
-11.363619200313957
20
-4.4956515788413745
30
0
10
-11.4007178934453
20
-4.445777459643808
30
0
10
-11.438412226041153
20
-4.3940941476481337
30
0
10
-11.47624243672697
20
-4.3410027297309455
30
0
10
-11.513700413666811
20
-4.2867823488963204
30
0
10
-11.550384869816449
20
-4.2314010728079881
30
0
10
-11.585992883205705
20
-4.1746430954428746
30
0
10
-11.620327578789619
20
-4.1162052700574883
30
0
10
-11.653298932313763
20
-4.0558033081078806
30
0
10
-11.684929262957791
20
-3.9932786196896011
30
0
10
-11.715351536159581
20
-3.9286911187131341
30
0
10
-11.744754274509724
20
-3.8622761340859135
30
0
10
-11.773332448567684
20
-3.7944132938467785
30
0
10
-11.801233413947044
20
-3.7255920387298604
30
0
10
-11.828511092624536
20
-3.6563757568080661
30
0
10
-11.85506097598935
20
-3.5873736454477561
30
0
10
-11.880651056127755
20
-3.5191703884681491
30
0
10
-11.904991341783532
20
-3.4522412097631423
30
0
10
-11.927792881284269
20
-3.3868661893774021
30
0
10
-11.948826856859815
20
-3.323057031721139
30
0
10
-11.967994009523395
20
-3.2604492274532695
30
0
10
-11.985354805528756
20
-3.198306850086452
30
0
10
-12.001080245304015
20
-3.1357426281251515
30
0
10
-12.015419253108453
20
-3.0719009560982782
30
0
10
-12.028660510157112
20
-3.0061363856673435
30
0
10
-12.041094043130952
20
-2.9382408634645167
30
0
10
-12.052982641736927
20
-2.8684772350627052
30
0
10
-12.064548215512986
20
-2.7973624654670899
30
0
10
-12.075953871912366
20
-2.7255120021332084
30
0
10
-12.087288622576065
20
-2.6534642456638018
30
0
10
-12.098548871576963
20
-2.5815018982441242
30
0
10
-12.109627437928363
20
-2.5095087840596308
30
0
10
-12.120360169238628
20
-2.4371452924489452
30
0
10
-12.130565931019799
20
-2.3639882102422236
30
0
10
-12.140091386253641
20
-2.2896927647991019
30
0
10
-12.148848575958073
20
-2.2141257083081296
30
0
10
-12.156868535671322
20
-2.137559767570909
30
0
10
-12.164287978721628
20
-2.0606146864810175
30
0
10
-12.171293157271851
20
-1.984036196989907
30
0
10
-12.178077021185747
20
-1.9085257644081615
30
0
10
-12.184789929124339
20
-1.8345447255658649
30
0
10
-12.191495356434013
20
-1.7621402368428563
30
0
10
-12.198117471721757
20
-1.6907328769869077
30
0
10
-12.204484406947486
20
-1.6193619263517181
30
0
10
-12.210379087939218
20
-1.5469642888818602
30
0
10
-12.215589264158952
20
-1.472655651136165
30
0
10
-12.219953577334179
20
-1.3959784409063978
30
0
10
-12.223419825056686
20
-1.3172428191003962
30
0
10
-12.226059618051845
20
-1.2375391313578228
30
0
10
-12.228023872237749
20
-1.1583013431257259
30
0
10
-12.229513473983364
20
-1.080991337526152
30
0
10
-12.230742770854755
20
-1.0067140607394114
30
0
10
-12.231908509933646
20
-0.93590897650203309
30
0
10
-12.233150420665199
20
-0.86789067489162475
30
0
10
-12.234545711892979
20
-0.80104516454155372
30
0
10
-12.236120985904245
20
-0.73335514346650732
30
0
10
-12.23785864420255
20
-0.66284234464568337
30
0
10
-12.239705821951642
20
-0.58800153666933019
30
0
10
-12.241581637523089
20
-0.50834223984678761
30
0
10
-12.243387399997419
20
-0.42449796919619254
30
0
10
-12.245019928119579
20
-0.33777522100044738
30
0
10
-12.246384006198515
20
-0.2498470766631308
30
0
10
-12.247405419142122
20
-0.16238325741255577
30
0
10
-12.248043209137244
20
-0.076718466015344364
30
0
10
-12.248303532696314
20
0.0065221688530155471
30
0
10
-12.24824911263698
20
0.087701562821708642
30
0
10
-12.247978520998089
20
0.167820688852791
30
0
10
-12.247608582724686
20
0.24823309079250977
30
0
10
-12.247255617107626
20
0.33033528077540758
30
0
10
-12.247017089088898
20
0.41526594031735448
30
0
10
-12.246953283884471
20
0.50360476981996771
30
0
10
-12.247068421258772
20
0.59506201745089471
30
0
10
-12.247322489653655
20
0.68869851949727467
30
0
10
-12.247643820670611
20
0.783158819511518
30
0
10
-12.24794134411761
20
0.87689821617233299
30
0
10
-12.248117080696334
20
0.96841515738353279
30
0
10
-12.24807829387011
20
1.0564748845563412
30
0
10
-12.247750356891574
20
1.1403522341450598
30
0
10
-12.247087650261586
20
1.2200209484692186
30
0
10
-12.246071033678247
20
1.2959663577320104
30
0
10
-12.244706526425135
20
1.3690384026715934
30
0
10
-12.243023873830955
20
1.4402859345579149
30
0
10
-12.241074362630389
20
1.5108063547995454
30
0
10
-12.238930910291419
20
1.5815706962623091
30
0
10
-12.236680211632979
20
1.6533231606419183
30
0
10
-12.234402744613826
20
1.7265892393976345
30
0
10
-12.232155920711191
20
1.8016585360165893
30
0
10
-12.229955446224315
20
1.8785766482623047
30
0
10
-12.227758657074375
20
1.9571358411244175
30
0
10
-12.225443761140271
20
2.0368590748425959
30
0
10
-12.222838513382724
20
2.1170922513755395
30
0
10
-12.219753829983848
20
2.197107861383377
30
0
10
-12.216015557357505
20
2.2762042684674033
30
0
10
-12.211497198407198
20
2.3538074068849246
30
0
10
-12.206151807131363
20
2.4295700998528922
30
0
10
-12.200045383660379
20
2.5034760216179235
30
0
10
-12.19332225482685
20
2.5757373879942271
30
0
10
-12.186169770638157
20
2.646691631823872
30
0
10
-12.178782066421986
20
2.7166927640970604
30
0
10
-12.171326915421167
20
2.7860179096555564
30
0
10
-12.163904572829162
20
2.8547353394286654
30
0
10
-12.156538012269477
20
2.9227213247528896
30
0
10
-12.149190156438518
20
2.9897973794099717
30
0
10
-12.141772907978043
20
3.0558420045910135
30
0
10
-12.134160776179385
20
3.1208941607856993
30
0
10
-12.126199547600946
20
3.1853058813542989
30
0
10
-12.117728031957634
20
3.2497033176493586
30
0
10
-12.108611949333095
20
3.3147307127426306
30
0
10
-12.098777840754558
20
3.3808344624505087
30
0
10
-12.088240190068282
20
3.4480661980054284
30
0
10
-12.077148068656538
20
3.515791052088086
30
0
10
-12.065755721227672
20
3.5827902713987423
30
0
10
-12.054329423341652
20
3.647701293463717
30
0
10
-12.043066927870401
20
3.7093858105330431
30
0
10
-12.03202332650967
20
3.7672773715173848
30
0
10
-12.021005291028949
20
3.8218624482040533
30
0
10
-12.009614172420171
20
3.874519873090907
30
0
10
-11.9973928785596
20
3.9269113080734064
30
0
10
-11.983930703678549
20
3.9805538497190538
30
0
10
-11.969010596351902
20
4.0362085876386509
30
0
10
-11.952645239636338
20
4.0937516531647917
30
0
10
-11.934986493863763
20
4.1525946818212471
30
0
10
-11.916266627811137
20
4.2119676520997196
30
0
10
-11.89672710732942
20
4.2712549369920314
30
0
10
-11.876551513664365
20
4.3303158755481732
30
0
10
-11.855860610461026
20
4.3893054109264114
30
0
10
-11.834708825470129
20
4.4484720869388257
30
0
10
-11.813081986016849
20
4.5079795230706603
30
0
10
-11.790890220518483
20
4.5676831101783018
30
0
10
-11.767976533616833
20
4.6270369018598565
30
0
10
-11.744164169141973
20
4.6853309729542216
30
0
10
-11.719299767061845
20
4.741876641427762
30
0
10
-11.69329168290977
20
4.7961919101996964
30
0
10
-11.666166436705081
20
4.8482372070783537
30
0
10
-11.638044576805369
20
4.8984028579872598
30
0
10
-11.609056946511828
20
4.9473162466393203
30
0
10
-11.579283618156431
20
4.9957078083667543
30
0
10
-11.548672129245853
20
5.0442408782082833
30
0
10
-11.516999743217967
20
5.0933940026279947
30
0
10
-11.483963116074174
20
5.1434783574793386
30
0
10
-11.449248933431356
20
5.1946321200400112
30
0
10
-11.412607306423372
20
5.2468263449863537
30
0
10
-11.373936053786725
20
5.2998595531270141
30
0
10
-11.333270671657882
20
5.3534039673922056
30
0
10
-11.290749419842248
20
5.4070628412925963
30
0
10
-11.246586591348933
20
5.4604258463493771
30
0
10
-11.201043095625975
20
5.5131212849972435
30
0
10
-11.154396273099207
20
5.5648799238431241
30
0
10
-11.106923343858879
20
5.6155237395967657
30
0
10
-11.058889337425068
20
5.6649338022809035
30
0
10
-11.010533376131981
20
5.7130233222450828
30
0
10
-10.96205590617876
20
5.7597126982234546
30
0
10
-10.913604863131283
20
5.8048933310417983
30
0
10
-10.865265761923837
20
5.8484436504094601
30
0
10
-10.817055739050907
20
5.8902771234796729
30
0
10
-10.768913939021626
20
5.9303840109072299
30
0
10
-10.720698903718381
20
5.9688682019395536
30
0
10
-10.672168736545181
20
6.0060055285558782
30
0
10
-10.623069634249054
20
6.0421578040769273
30
0
10
-10.573263249801457
20
6.0776384121133162
30
0
10
-10.522828849462924
20
6.1126035616110048
30
0
10
-10.472203929247399
20
6.1469112857610693
30
0
10
-10.422226034611537
20
6.1800578476637922
30
0
10
-10.373717767425097
20
6.2114705544886828
30
0
10
-10.327109189777296
20
6.2407684886924759
30
0
10
-10.282089951666807
20
6.2680074955397558
30
0
10
-10.237134383728552
20
6.2940046980402649
30
0
10
-10.190049882506978
20
6.3200139605755341
30
0
10
-10.138802417028062
20
6.3472274289121797
30
0
10
-10.082159927427027
20
6.3763878869218109
30
0
10
-10.020623995605922
20
6.4072301854355116
30
0
10
-9.9561286959450666
20
6.4386476437872942
30
0
10
-9.8911964821915888
20
6.4691777496642322
30
0
10
-9.8282254697443232
20
6.4974095860109662
30
0
10
-9.7688106414348184
20
6.522374030184964
30
0
10
-9.7128322142437469
20
6.544064020377184
30
0
10
-9.6585452854508738
20
6.563392453506439
30
0
10
-9.6035667856378737
20
6.5816457177068477
30
0
10
-9.5456041670250364
20
6.6000823287770229
30
0
10
-9.4833025739948607
20
6.6194651843071073
30
0
10
-9.4170062024509509
20
6.6396414317315484
30
0
10
-9.3481580419304322
20
6.6598677226070766
30
0
10
-9.2787386412876902
20
6.6791140883940923
30
0
10
-9.2106758978213801
20
6.696383933770651
30
0
10
-9.1453011735311094
20
6.7110079740127517
30
0
10
-9.0826955835129546
20
6.7230001578319243
30
0
10
-9.0219813939804023
20
6.7328790816075745
30
0
10
-8.9617752892664964
20
6.7413971863949858
30
0
10
-8.900575811109583
20
6.7493086362029224
30
0
10
-8.8371996563477282
20
6.7571061537775279
30
0
10
-8.7711352975016741
20
6.7648142374406008
30
0
10
-8.7023608931672953
20
6.7721569663070769
30
0
10
-8.6312137449988899
20
6.7786894628886385
30
0
10
-8.5582399246324012
20
6.7839435734264049
30
0
10
-8.4840526613243483
20
6.7875667569002287
30
0
10
-8.4091860332885897
20
6.7894659145462519
30
0
10
-8.3340765514152046
20
6.7897372505149631
30
0
10
-8.2590465068650101
20
6.7885955780667606
30
0
10
-8.1842845763772925
20
6.786301418239006
30
0
10
-8.1098324193068336
20
6.7830944506682771
30
0
10
-8.0355569296022153
20
6.7791110597588062
30
0
10
-7.9611703405296996
20
6.774355267710936
30
0
10
-7.8863260875024324
20
6.7687532079092243
30
0
10
-7.8106950037572016
20
6.762187270025775
30
0
10
-7.7340533615552198
20
6.7545398407871255
30
0
10
-7.6563567720371859
20
6.7457296987080726
30
0
10
-7.5778435820671026
20
6.735759929987247
30
0
10
-7.4989734906717675
20
6.7247066398375059
30
0
10
-7.4203129253879814
20
6.7126889750116172
30
0
10
-7.3424393039907061
20
6.6998455555686061
30
0
10
-7.2658346856949869
20
6.6863077246942533
30
0
10
-7.1907903403607438
20
6.672175346389376
30
0
10
-7.1172897867853351
20
6.6574883740546218
30
0
10
-7.0450721853921348
20
6.6422324494807237
30
0
10
-6.973723449541902
20
6.6263500086752005
30
0
10
-6.9027591363777265
20
6.6097491286116394
30
0
10
-6.8317074591174567
20
6.5923140754683773
30
0
10
-6.7602002710649316
20
6.5739133079664969
30
0
10
-6.6880344684225639
20
6.5544145893585597
30
0
10
-6.6151630790318361
20
6.5337175380377213
30
0
10
-6.5416991605511488
20
6.5117814824075033
30
0
10
-6.4679171649969778
20
6.488657819860963
30
0
10
-6.3942494702222241
20
6.4645143702633208
30
0
10
-6.3212999318193521
20
6.4396785357503221
30
0
10
-6.2497754750301926
20
6.4145955115378381
30
0
10
-6.1803750463045146
20
6.3897424980996478
30
0
10
-6.1136899678326486
20
6.365555210635689
30
0
10
-6.0501036983593117
20
6.3423523222543663
30
0
10
-5.9896820504246628
20
6.3202536121503421
30
0
10
-5.9320961890773134
20
6.2991217986963077
30
0
10
-5.8767661316492674
20
6.2786641019321392
30
0
10
-5.8229839818272389
20
6.2585201078891508
30
0
10
-5.7700380673361504
20
6.2383478121314893
30
0
10
-5.7173536095808783
20
6.2179278952299617
30
0
10
-5.6645497805225977
20
6.1971796750602506
30
0
10
-5.6114468678559852
20
6.1761191672716285
30
0
10
-5.5580795938829635
20
6.154834366700368
30
0
10
-5.5047283479435345
20
6.1334539429875194
30
0
10
-5.4518741084630831
20
6.112116887962129
30
0
10
-5.3999872356472718
20
6.0909352835091637
30
0
10
-5.3493588599707893
20
6.0699602347195638
30
0
10
-5.2999000587052807
20
6.0491434541907418
30
0
10
-5.2509984149713258
20
6.0283094989476966
30
0
10
-5.2018199220901415
20
6.007216946594486
30
0
10
-5.151567522198417
20
5.9856113822639809
30
0
10
-5.0997656599414931
20
5.9632821668136842
30
0
10
-5.0465074355698185
20
5.9401156348736475
30
0
10
-4.9922673473948844
20
5.9161031166231703
30
0
10
-4.9377353972759757
20
5.8913554553942955
30
0
10
-4.8836494401640556
20
5.8661069144746385
30
0
10
-4.83061283616897
20
5.8407441559800235
30
0
10
-4.7789993885274908
20
5.8157023689113592
30
0
10
-4.7288820669360039
20
5.7912913557882204
30
0
10
-4.6799776761099317
20
5.7675697662334571
30
0
10
-4.6315296034912112
20
5.7441396003358047
30
0
10
-4.5824157081470043
20
5.7201885828735524
30
0
10
-4.5316204225775731
20
5.6949161260920302
30
0
10
-4.4785874434538551
20
5.6678409821236402
30
0
10
-4.4236915861728994
20
5.6392159058202012
30
0
10
-4.3684465602416758
20
5.6102185473401658
30
0
10
-4.3147787451274908
20
5.5823639317457046
30
0
10
-4.2644069436717409
20
5.5570045366443175
30
0
10
-4.2182499064584045
20
5.5348545243698064
30
0
10
-4.1756470975737443
20
5.5153561834398772
30
0
10
-4.1348002163834012
20
5.497073331952655
30
0
10
-4.0935621262969528
20
5.4783724479722586
30
0
10
-4.0501735838385313
20
5.458069488037177
30
0
10
-4.003832577148267
20
5.4359077146936512
30
0
10
-3.9543825778848323
20
5.4121775652828461
30
0
10
-3.9021496595784431
20
5.3874866696970729
30
0
10
-3.8477036820279022
20
5.3624409463003335
30
0
10
-3.7917071007650338
20
5.3374592366726663
30
0
10
-3.7349019623406079
20
5.3128398644391028
30
0
10
-3.6780759070423001
20
5.2887811958319357
30
0
10
-3.622028089793365
20
5.2654173794313159
30
0
10
-3.5675566735543547
20
5.2428552504449408
30
0
10
-3.5152807035189206
20
5.2211581707505816
30
0
10
-3.4653753878220543
20
5.2003041951622873
30
0
10
-3.417392011376605
20
5.1801633541473935
30
0
10
-3.3699100633516164
20
5.1604421348790757
30
0
10
-3.3207902175444199
20
5.1407415569011086
30
0
10
-3.2681126676169234
20
5.1207465195471293
30
0
10
-3.2108265405205882
20
5.100356457818374
30
0
10
-3.1497556637975421
20
5.0798933289766008
30
0
10
-3.0876200189517617
20
5.0600904376698308
30
0
10
-3.0276621960974825
20
5.0417701004401456
30
0
10
-2.9725470908590728
20
5.0255805770194204
30
0
10
-2.9232710761916798
20
5.011739608381732
30
0
10
-2.8777591123924466
20
4.9996965964033206
30
0
10
-2.8319632484791195
20
4.9884329221440691
30
0
10
-2.7815555800616565
20
4.9769128484319021
30
0
10
-2.7234569610697594
20
4.9644939300115762
30
0
10
-2.6573262215498139
20
4.9513239665993316
30
0
10
-2.5846809680215537
20
4.9380718928374723
30
0
10
-2.5081606763926825
20
4.9256988052215194
30
0
10
-2.4307102479997358
20
4.9152055756385691
30
0
10
-2.3548547450546753
20
4.907408894333404
30
0
10
-2.2817872333807201
20
4.9026575178441938
30
0
10
-2.211501912790228
20
4.9008849753984363
30
0
10
-2.1432459862228943
20
4.9017649010693409
30
0
10
-2.0758780822897149
20
4.9048364433791241
30
0
10
-2.0082377215781766
20
4.9096327760980971
30
0
10
-1.9395786475533128
20
4.9158313132832516
30
0
10
-1.8697120454574798
20
4.9233063703697271
30
0
10
-1.7988140969392263
20
4.9320689295083184
30
0
10
-1.7273211770544292
20
4.9422361582153362
30
0
10
-1.6557917954823147
20
4.9539890153141792
30
0
10
-1.5847769110297349
20
4.9675344438597531
30
0
10
-1.5147042621060782
20
4.9830671083629268
30
0
10
-1.4458629321497718
20
5.0007396802744815
30
0
10
-1.3783747102555575
20
5.020632377050088
30
0
10
-1.3121684704501346
20
5.04272140260142
30
0
10
-1.2469582537366934
20
5.0668510991603082
30
0
10
-1.1822065775057318
20
5.0926959243860557
30
0
10
-1.1172387525519107
20
5.119821717195264
30
0
10
-1.051374573958352
20
5.1477588633539124
30
0
10
-0.98406101280663616
20
5.1760748131840542
30
0
10
-0.91498833454415907
20
5.204438837681316
30
0
10
-0.84425331945433246
20
5.2327100046176902
30
0
10
-0.77233602077961938
20
5.2609325181759869
30
0
10
-0.69991353611513951
20
5.2892500450118858
30
0
10
-0.62772234604254495
20
5.3178440737143484
30
0
10
-0.5563950203445277
20
5.3468598234334266
30
0
10
-0.48632119120920719
20
5.376343517488789
30
0
10
-0.41746355380657735
20
5.4061590917520599
30
0
10
-0.34944691064935046
20
5.4360289541943896
30
0
10
-0.28171510773200359
20
5.4656056026864324
30
0
10
-0.21366803642372664
20
5.4945340820678146
30
0
10
-0.14480018961503927
20
5.5225154198850879
30
0
10
-0.074854757039157477
20
5.5493764577054279
30
0
10
-0.0039215065969208625
20
5.5751161407517005
30
0
10
0.067714944667242288
20
5.5998479586823802
30
0
10
0.13968704990367348
20
5.6237582087778355
30
0
10
0.21167897159258148
20
5.6470566401783238
30
0
10
0.28353506021349073
20
5.6699336546306105
30
0
10
0.35542058483811134
20
5.6925064587434004
30
0
10
0.42778467087730215
20
5.7148050396086578
30
0
10
0.5011648220708449
20
5.7367892093888804
30
0
10
0.57604050338575274
20
5.7583568283277149
30
0
10
0.65265854705074322
20
5.779355506889817
30
0
10
0.73088929810430348
20
5.7995931529777014
30
0
10
0.81002090297476759
20
5.8188481371984615
30
0
10
0.88894577123386231
20
5.8368862694828056
30
0
10
0.9664462452518271
20
5.8534797781077259
30
0
10
1.041444273790918
20
5.8684254422078928
30
0
10
1.1132713713362743
20
5.8815634252215245
30
0
10
1.181917666780655
20
5.8927949976190606
30
0
10
1.2483228372291091
20
5.9021029211106484
30
0
10
1.3140095937699152
20
5.9095282512370035
30
0
10
1.3806786035723331
20
5.9151445638283713
30
0
10
1.4498050546491532
20
5.9190322885948943
30
0
10
1.5222625415312276
20
5.9212548792536905
30
0
10
1.5978617882332096
20
5.9218292660194933
30
0
10
1.6755841888689442
20
5.9207428353434004
30
0
10
1.7539466516214222
20
5.9179790770737117
30
0
10
1.831325381727565
20
5.9135407546456245
30
0
10
1.9062867155909953
20
5.9074729203437197
30
0
10
1.9779391516937079
20
5.8998888367091906
30
0
10
2.0462050536261125
20
5.8909863275428922
30
0
10
2.1115336147822794
20
5.8809999398656991
30
0
10
2.1746718538111414
20
5.8701591444970438
30
0
10
2.2364173327657726
20
5.8586459080376594
30
0
10
2.2973691281695068
20
5.8465485834240756
30
0
10
2.3577074023685514
20
5.8338285969972405
30
0
10
2.4172746340557905
20
5.8203910026872725
30
0
10
2.4756234369781405
20
5.8061515858091459
30
0
10
2.5320901517865937
20
5.7910936817796674
30
0
10
2.5858255319907917
20
5.775357763688203
30
0
10
2.6359879469700056
20
5.7591939848031624
30
0
10
2.6821182038813038
20
5.742780989749642
30
0
10
2.7243887810426455
20
5.7261116065433448
30
0
10
2.7640783963289506
20
5.7087834156260904
30
0
10
2.8031776609387205
20
5.6901313462717145
30
0
10
2.8435182637166689
20
5.6695468109819585
30
0
10
2.8859159634442872
20
5.6467879728483732
30
0
10
2.9296995302343967
20
5.6221518787698876
30
0
10
2.9735996593336385
20
5.5961610022203496
30
0
10
3.0163122278041441
20
5.5693591134616938
30
0
10
3.0573496046527748
20
5.5420231978353485
30
0
10
3.0970845869564951
20
5.514084545613712
30
0
10
3.1362311274336094
20
5.4851847224505468
30
0
10
3.1755026329374441
20
5.4546983576833385
30
0
10
3.215156736077355
20
5.4217564172944517
30
0
10
3.2550832494805495
20
5.385437839928187
30
0
10
3.2949469356017178
20
5.3449929336207784
30
0
10
3.3343080937168401
20
5.3000425647784208
30
0
10
3.3727618457288999
20
5.2508204588740108
30
0
10
3.4099513489781499
20
5.1979782418565508
30
0
10
3.4455676482075894
20
5.1423350462793556
30
0
10
3.4793539581795563
20
5.0846532835684135
30
0
10
3.5111085796254549
20
5.0253883918039453
30
0
10
3.5406869708610338
20
4.9644932051124044
30
0
10
3.56798882548456
20
4.9016646971886173
30
0
10
3.5929466380485233
20
4.8365509698668063
30
0
10
3.6155136174523261
20
4.7689757342650001
30
0
10
3.635652054956569
20
4.699149995382685
30
0
10
3.653321015754492
20
4.6279036588586653
30
0
10
3.6684821965767522
20
4.5564129318916837
30
0
10
3.6811063470134568
20
4.4859197308957075
30
0
10
3.6911795577401039
20
4.4174371679873188
30
0
10
3.6987094412410717
20
4.3514991745443847
30
0
10
3.7037317743575113
20
4.2877952073211931
30
0
10
3.7063148538637218
20
4.2253100830715704
30
0
10
3.7065621100773267
20
4.1627577961226008
30
0
10
3.7046158389005832
20
4.098936864212126
30
0
10
3.7006591662276676
20
4.0330934193931309
30
0
10
3.6949221762470765
20
3.9653456830386902
30
0
10
3.6876540532102808
20
3.8964595713808565
30
0
10
3.6790903026465518
20
3.8275153849181138
30
0
10
3.6694200697597856
20
3.7596009772804861
30
0
10
3.6587570846370836
20
3.6935205309411558
30
0
10
3.6470996321856304
20
3.6294279422614766
30
0
10
3.6343556643517561
20
3.5669335300941798
30
0
10
3.6203889630941903
20
3.5053655206773415
30
0
10
3.6050587819869282
20
3.4439829333964886
30
0
10
3.5882611526241832
20
3.3822022626565058
30
0
10
3.5699723261624126
20
3.3198357621893329
30
0
10
3.5502384794181316
20
3.2569990053699951
30
0
10
3.5291611474997211
20
3.1939914278040296
30
0
10
3.5068841229339109
20
3.1311869013732139
30
0
10
3.4835799492500237
20
3.0689197151387875
30
0
10
3.4594360287770649
20
3.0073735463024036
30
0
10
3.4346072182736123
20
2.9465728935473723
30
0
10
3.4091678312701243
20
2.886372267891951
30
0
10
3.3830660041262788
20
2.8264485446130174
30
0
10
3.3560720801363542
20
2.7662865247793538
30
0
10
3.3277439531581159
20
2.7051832559764701
30
0
10
3.2976017383337539
20
2.6424892896234633
30
0
10
3.265283952571445
20
2.5778266374166314
30
0
10
3.2307186388509299
20
2.5113293355789468
30
0
10
3.1942699441503222
20
2.4438428014026878
30
0
10
3.1569428565252893
20
2.3772235043524423
30
0
10
3.1201416197815717
20
2.3138684138556203
30
0
10
3.0853548331768095
20
2.2561220213122519
30
0
10
3.0538460351891383
20
2.2056836309905123
30
0
10
3.0263870282921284
20
2.1631098038803072
30
0
10
3.0028592709517268
20
2.1270362955051616
30
0
10
2.9825023412705374
20
2.0947480831340224
30
0
10
2.9644293606325047
20
2.0632556928419818
30
0
10
2.9481239286337115
20
2.0304347172094803
30
0
10
2.9336906930639164
20
1.9953219561622524
30
0
10
2.9217434921602474
20
1.9575030217220477
30
0
10
2.9134667245679902
20
1.9166120669697433
30
0
10
2.910264541272674
20
1.8724366187368895
30
0
10
2.9133154702937527
20
1.825319715960094
30
0
10
2.9230433354670531
20
1.7766042683553789
30
0
10
2.9390341625163829
20
1.7285362632353862
30
0
10
2.9604908462110449
20
1.6834528556688795
30
0
10
2.9865231994858972
20
1.6432163647752529
30
0
10
3.0165578437759062
20
1.6084169610874079
30
0
10
3.0502746723634293
20
1.5787136022871235
30
0
10
3.0874683298304415
20
1.5533599796158881
30
0
10
3.1279123759784317
20
1.5317449577364659
30
0
10
3.1712978882773561
20
1.513665515092939
30
0
10
3.2173136649977376
20
1.4991170350841421
30
0
10
3.2656898319871495
20
1.4882035380141112
30
0
10
3.3162619365953132
20
1.4809899980698127
30
0
10
3.3584110996807297
20
1.4782047176442117
30
0
10
3.3909620769483904
20
1.4777999863227007
30
0
10
3.4130801195172853
20
1.4782787002876576
30
0
10
3.4242434878346892
20
1.4787051914710527
30
0
0
LWPOLYLINE
5
124
100
AcDbEntity
8
0
100
AcDbPolyline
90
4
70
1
43
0.0
10
-4.4915810393090236
20
-3.7427840295263786
10
-9.0081851056000275
20
-3.7427840295263772
42
-0.99999999999999989
10
-9.0081851056000275
20
-2.6923096184660165
10
-4.4915810393090236
20
-2.6923096184660182
42
-0.99999999999999989
0
LINE
5
125
100
AcDbEntity
8
0
100
AcDbLine
10
-9.5334223111302094
20
-3.2175468239961975
30
0
11
-3.9663438337788435
21
-3.2175468239961984
31
0
0
LINE
5
126
100
AcDbEntity
8
0
100
AcDbLine
10
0.13526162799477673
20
0.72050192915277533
30
0
11
0.13526162799477673
21
0.10075624667975729
31
0
0
LINE
5
127
100
AcDbEntity
8
0
100
AcDbLine
10
0.6000000191485787
20
0.72050192915277533
30
0
11
0.6000000191485787
21
0.1007562466797572
31
0
0
LWPOLYLINE
5
128
100
AcDbEntity
8
0
100
AcDbPolyline
90
4
70
1
43
0.0
10
-1.2632936521856608
20
0.23665826275407892
10
-2.9366338264676286
20
-1.4427406686631012
42
-0.99999999999999989
10
-3.2833660983624662
20
-1.0972593006405065
10
-1.6100259240804995
20
0.5821396307766733
42
-0.99999999999999989
0
LINE
5
129
100
AcDbEntity
8
0
100
AcDbLine
10
-3.1099999624150474
20
-1.269999984651804
30
0
11
-1.43665978813308
21
0.40939894676537614
31
0
0
LINE
5
130
100
AcDbEntity
8
0
100
AcDbLine
10
-3.3471143090258018
20
-1.3305965822244794
30
0
11
-4.7023931819717646
21
-2.6923096184660182
31
0
0
LINE
5
131
100
AcDbEntity
8
0
100
AcDbLine
10
-3.173199887770052
20
-1.5064337606677352
30
0
11
-4.3594786143200057
21
-2.7091935301294492
31
0
0
LWPOLYLINE
5
132
100
AcDbEntity
8
0
100
AcDbPolyline
90
10
70
1
43
0.0
10
-4.013896699123821
20
0.30352755011809152
10
-4.1245814112756589
20
1.4588939975112494
42
0.44381607507396492
10
-4.6500001484014852
20
1.8500000590414512
10
-5.2775658274807347
20
1.6441086099459996
42
0.25815315692585467
10
-5.4587449613936005
20
1.4490430212616727
10
-5.8746434544083339
20
-0.22698645391066186
42
0.25354242905433211
10
-5.8173120319520271
20
-0.44838289327513575
10
-5.3500001707414935
20
-0.95000003031858304
42
0.43705881573628325
10
-4.7291907914900184
20
-0.89146418294671437
10
-4.0498527661923607
20
0.15648326414922195
42
0.169253245435349
0
CIRCLE
5
133
100
AcDbEntity
8
0
100
AcDbCircle
10
-7.0977495837646352
20
1.4701034208882533
30
0
40
0.066793909859328815
0
CIRCLE
5
134
100
AcDbEntity
8
0
100
AcDbCircle
10
-7.0977495837646352
20
1.0451034208882533
30
0
40
0.066793909859328815
0
CIRCLE
5
135
100
AcDbEntity
8
0
100
AcDbCircle
10
-7.0977495837646352
20
0.62010342088825321
30
0
40
0.066793909859328815
0
CIRCLE
5
136
100
AcDbEntity
8
0
100
AcDbCircle
10
-7.0977495837646352
20
0.19510342088825325
30
0
40
0.066793909859328815
0
CIRCLE
5
137
100
AcDbEntity
8
0
100
AcDbCircle
10
-7.0977495837646352
20
-0.22989657911174685
30
0
40
0.066793909859328815
0
CIRCLE
5
138
100
AcDbEntity
8
0
100
AcDbCircle
10
-7.0977495837646352
20
-0.65489657911174692
30
0
40
0.066793909859328815
0
CIRCLE
5
139
100
AcDbEntity
8
0
100
AcDbCircle
10
-7.0977495837646352
20
1.4701034208882533
30
0
40
0.16135311163376703
0
CIRCLE
5
140
100
AcDbEntity
8
0
100
AcDbCircle
10
-7.0977495837646352
20
1.0451034208882533
30
0
40
0.16150000000000012
0
CIRCLE
5
141
100
AcDbEntity
8
0
100
AcDbCircle
10
-7.0977495837646352
20
0.62010342088825321
30
0
40
0.16150000000000006
0
CIRCLE
5
142
100
AcDbEntity
8
0
100
AcDbCircle
10
-7.0977495837646352
20
0.19510342088825325
30
0
40
0.16150000000000031
0
CIRCLE
5
143
100
AcDbEntity
8
0
100
AcDbCircle
10
-7.0977495837646352
20
-0.22989657911174685
30
0
40
0.16149999999999981
0
CIRCLE
5
144
100
AcDbEntity
8
0
100
AcDbCircle
10
-7.0977495837646352
20
-0.65489657911174692
30
0
40
0.16150000000000045
0
ENDSEC
0
SECTION
2
OBJECTS
0
DICTIONARY
5
C
100
AcDbDictionary
3
ACAD_GROUP
350
D
3
ACAD_MLINESTYLE
350
17
0
DICTIONARY
5
D
100
AcDbDictionary
0
DICTIONARY
5
1A
330
C
100
AcDbDictionary
0
DICTIONARY
5
17
100
AcDbDictionary
0
ENDSEC
0
EOF
